<svg width="190" height="55" viewBox="0 0 190 55" fill="none" xmlns="http://www.w3.org/2000/svg">
<path d="M101.901 47.0596C106.991 49.7662 107.416 46.307 109.532 46.7047C111.648 47.0981 112.389 50.677 115.367 50.2751C118.342 49.8774 119.2 47.299 120.147 44.5154C121.093 41.7275 121.009 35.2751 119.435 30.764C117.858 26.2572 120.147 25.8937 120.147 22.396C120.147 17.1324 113.066 22.1566 114.581 26.8045C116.095 31.4482 115.052 30.6016 114.164 33.351C113.272 36.1004 115.384 37.9134 113.924 38.9353C111 40.9921 109.09 38.2683 105.38 40.5773C101.678 42.8863 95.1988 35.7626 91.7195 39.1448C89.6034 41.2016 90.7856 44.3786 92.279 46.6363C89.6034 45.2081 87.8028 43.6346 86.8058 42.1551C83.7725 37.7039 84.5044 34.0009 91.3914 34.5183C98.2825 35.0399 106.646 39.2347 112.073 35.2024C114.29 33.3852 112.174 30.8581 108.026 28.6688C106.911 27.369 105.359 24.3287 108.22 23.7258C111.631 23.0118 110.201 20.3778 114.425 19.9972C118.653 19.6081 120.142 19.9972 120.142 11.5737C120.147 6.1646 116.617 15.6443 112.023 15.6443C107.433 15.6443 107.572 19.2532 104.13 19.8305C101.177 20.3265 100.033 24.239 103.18 27.1594C102.267 26.8772 101.307 26.6035 100.289 26.3299C95.6237 25.2181 94.5172 22.4901 94.3994 20.4077C94.4752 18.8726 99.6077 18.0731 98.3583 16.9015C98.3583 16.9015 96.5787 15.7598 93.4066 15.6443C90.2302 15.5331 89.94 15.9864 89.7044 15.3322C89.4688 14.678 91.6774 13.8228 95.4764 15.144C99.2796 16.4653 101.333 14.7549 105.418 14.7549C108.952 14.7549 115.111 12.215 118.476 9.65374C120.382 8.20422 120.353 7.82365 120.353 4.76636C120.353 1.70906 120.71 0.139806 114.581 0.139806C110.676 0.139806 111.636 0.699949 107.084 0.699949C101.335 0.699949 100.309 10.9578 96.5597 10.0707C92.8104 9.18362 102.431 5.41203 102.431 2.10675C102.431 -1.19429 91.0506 0.37072 86.9571 0.37072C82.8595 0.37072 85.4006 6.9599 83.8145 6.88294C80.655 6.71617 83.2129 0.139806 75.0512 0.139806C66.8812 0.139806 67.7899 2.53005 67.7899 9.85044C67.7899 17.1666 77.5503 7.91347 83.0319 13.3054C84.5423 14.802 86.7131 15.8239 87.7901 16.6278C87.7901 16.6278 87.1464 16.6748 86.8983 16.6962C86.65 16.7133 86.406 17.8507 88.2235 18.7658C89.5529 19.6124 89.9063 20.8268 89.9063 20.8268C90.9285 23.9525 93.5538 26.2871 96.566 28.0745C99.5824 29.8746 103.028 30.4861 105.611 31.4567C111.514 33.6802 105.51 34.7449 102.742 34.0565C99.9779 33.3638 98.9094 32.4231 96.1201 29.2589C93.3308 26.0947 85.2701 25.5731 85.2701 20.9251C85.2701 16.2857 82.7711 13.0531 79.0984 13.0531C75.4215 13.0531 80.1333 16.1874 79.2961 20.8396C79.1279 26.022 81.4123 24.6366 82.7627 27.1808C84.1132 29.725 83.5746 30.6015 88.0131 30.687C91.4208 30.7512 93.537 31.6876 93.7558 32.1152C85.7329 31.0291 78.724 33.1158 83.8229 43.7458C84.9756 46.136 86.8309 47.9875 89.1112 49.4156C85.6656 48.5946 84.0417 47.299 81.1809 47.299C77.1085 48.1499 82.7459 42.6041 79.1447 39.8247C75.5435 37.0368 82.2873 29.8917 78.4547 27.9291C74.6222 25.9664 77.3945 22.9006 77.7858 18.6033C78.1813 14.306 67.9245 11.7319 67.9245 16.0292C67.9245 20.3265 71.8329 19.1762 69.906 23.1914C67.975 27.2107 66.7255 30.593 69.3843 35.8438C72.0474 41.0947 67.9245 43.4807 67.9245 49.6294C67.9245 55.791 76.978 51.9684 82.4346 52.8406C87.8827 53.7215 91.1557 51.9983 92.1402 51.6605C92.4684 51.5408 92.8049 51.4552 93.1414 51.3826C104.265 55.5858 120.146 53.4649 120.146 53.4649V50.5744C109.217 53.1186 100.453 51.1816 97.2433 48.74C97.3191 47.5086 97.9291 44.9516 101.901 47.0596ZM105.144 27.5314C104.21 26.3855 103.276 24.6024 104.122 23.1144C105.035 21.7632 106.705 21.327 108.076 20.6857C109.023 20.3137 109.452 19.4328 110.054 18.676C111.438 17.081 113.592 16.7903 115.552 16.8416C117.559 16.9656 118.493 13.8955 119.027 12.3048C118.762 14.2119 118.056 17.3205 115.746 17.5258C115.632 17.5343 115.304 17.5471 115.186 17.5557C113.583 17.6284 111.762 17.9576 110.681 19.2447C110.054 20.0742 109.427 21.062 108.4 21.4254C104.824 22.721 102.952 23.418 105.144 27.5314ZM92.8176 29.9259C90.836 29.2674 88.7367 28.9938 86.8477 27.9633C85.876 27.4587 85.0766 26.5522 84.5213 25.6286C83.7346 24.2175 82.7543 23.0759 81.7614 21.8487C80.777 20.4932 80.777 18.6588 80.7896 17.111C80.777 16.5936 80.7391 16.0805 80.5709 15.6016C80.4068 15.1227 80.087 14.6993 79.6747 14.3744C80.1418 14.6309 80.5414 15.0158 80.7812 15.5075C81.5932 17.4146 80.9874 19.7535 82.3547 21.4168C83.4022 22.5756 84.4708 23.8156 85.2281 25.1711C85.7456 26.0519 86.364 26.7617 87.2349 27.2749C88.9892 28.3182 91.0758 28.7201 92.9606 29.5582C93.924 29.9901 94.8411 30.6699 95.3334 31.6149C94.6939 30.7683 93.7809 30.2466 92.8176 29.9259ZM83.0783 50.506C77.5671 49.0436 68.8963 51.7246 72.9687 42.4673C74.1088 40.0898 74.7063 38.1101 73.6124 35.5616C72.2073 32.4359 71.7824 29.9302 72.8089 26.5779C73.4021 24.2603 74.4581 19.839 72.5775 17.9833C74.6558 19.668 73.8607 24.3758 73.3473 26.7147C72.4807 29.9388 72.9477 32.2991 74.3487 35.2623C75.5477 37.9476 74.9839 40.2822 73.7302 42.805C72.9057 44.7164 71.6645 47.9062 74.4412 48.6588C76.2797 49.2574 78.3158 49.1804 80.2385 49.5054C81.2272 49.6593 82.2031 49.8689 83.1666 50.1211C85.0724 50.5958 86.9698 51.3398 88.9639 51.0832C86.9992 51.5194 85.0009 50.8566 83.0783 50.506ZM95.0725 47.3675C93.9282 44.2375 94.513 41.3298 98.434 41.9669C100.041 42.1594 101.497 43.1599 102.927 43.6816C103.907 44.0194 104.867 43.998 105.872 43.7372C108.047 43.2925 110.718 42.0311 112.721 43.6859C112.978 43.8997 113.264 44.2161 113.474 44.4769C114.055 45.2466 115.073 45.6614 115.948 45.1996C117.231 44.4513 117.382 42.7409 117.151 41.3256C116.65 39.3073 116.133 36.9384 116.684 34.8176C116.899 33.7358 117.303 32.7096 117.231 31.7304C117.223 31.5038 117.134 31.2301 117.071 31.0163C116.036 28.3053 115.944 24.581 118.476 22.7039C116.019 24.8589 116.541 28.5191 117.694 31.2344C118.026 32.4915 117.526 33.7358 117.332 34.9459C117.138 35.9806 117.109 37.024 117.239 38.0545C117.526 40.1582 118.691 42.4501 117.584 44.6137C116.512 46.7474 114.034 46.7346 112.7 44.8532C111.859 43.7201 110.517 43.502 109.124 43.7842C107.054 44.1049 104.812 45.1782 102.708 44.3102C101.665 43.9082 100.773 43.3096 99.8265 42.9077C95.6825 41.2871 93.9198 43.0531 95.0725 47.3675Z" fill="#FA8314"/>
<path d="M184.536 38.4228C178.277 38.4228 172.432 49.8253 171.438 48.5287C169.918 46.5487 175.718 41.4673 175.718 39.7457C175.718 39.0887 171.42 38.6725 166.11 38.5104C166.401 36.9203 166.614 36.1537 167.177 34.9447C167.871 33.4509 169.55 32.5923 175.468 33.4159C176.698 33.5867 178.196 32.8245 178.831 32.4784C179.14 32.312 176.648 32.1017 176.861 31.8608C177.079 31.6155 179.366 31.9484 179.525 31.6505C180.483 29.8764 180.674 27.4101 183.388 27.1166C183.823 27.0685 184.232 26.994 184.617 26.902C184.94 26.8232 182.339 25.9251 182.625 25.82C182.87 25.728 186.006 26.4333 186.224 26.3238C188.629 25.1454 189.537 23.0647 189.537 22.1097C189.537 20.8481 188.312 19.6741 181.654 20.3969C174.996 21.1241 171.797 29.504 168.361 31.8301C165.974 33.4421 165.107 36.6618 164.803 38.4754C164.658 38.471 164.508 38.4666 164.358 38.4622C164.095 36.1142 163.986 32.6536 165.243 30.7525C167.272 27.6949 171.692 27.5503 172.4 23.4063C172.663 21.8512 173.558 21.1635 174.601 20.6247C174.778 20.5327 173.734 16.1916 173.92 16.104C174.052 16.0426 175.414 20.2392 175.545 20.1779C177.047 19.4814 178.563 18.6841 178.867 15.9594C179.112 13.756 179.575 9.0557 184.363 7.82038C189.151 6.58507 191.579 0.233296 188.157 0.233296C180.283 0.233296 168.856 13.2785 166.101 19.4288C163.655 24.2299 162.965 26.2624 163.033 29.9114C163.033 29.9114 162.965 34.9884 163.201 38.4491C162.929 38.4447 162.656 38.4403 162.384 38.4359C162.443 36.0836 162.525 31.3789 162.262 29.9771C161.903 28.0804 162.026 22.3331 163.809 20.2742C165.597 18.2154 164.88 17.3568 167.204 14.1546C167.785 13.353 168.048 12.5645 168.18 11.8198C168.22 11.5876 165.202 7.83351 165.221 7.61448C165.243 7.40422 168.302 10.729 168.316 10.5319C168.425 8.89359 168.438 7.61447 170.975 7.13262C175.2 6.33098 178.255 1.49926 178.191 0.522388C178.132 -0.450077 171.043 0.233278 163.841 0.233278C156.638 0.233278 158.272 9.92304 160.06 15.4381C161.844 20.9532 160.673 26.0127 161.032 28.9433C161.295 31.1161 161.004 36.031 160.836 38.4316H160.369C160.764 34.3401 160.301 26.0171 160.301 26.0171C160.673 22.2192 159.915 20.5896 156.457 12.8887C153.003 5.18329 146.722 0.233278 138.172 0.233278C129.622 0.233278 142.098 3.6501 141.589 9.50687C141.285 13.042 143.564 13.4669 145.61 14.3868C146.119 14.6146 147.566 10.9349 148.002 11.2766C148.147 11.3905 147.335 15.4469 147.467 15.5827C147.993 16.1215 148.392 16.8399 148.569 17.8693C149.454 23.0602 154.987 23.2398 157.528 27.0728C159.457 29.9815 159.321 35.7989 159.144 38.4403C158.912 38.4403 158.681 38.4447 158.449 38.4491L158.25 36.2763C158.25 36.2763 156.407 23.5772 143.25 19.3324C131.755 16.0646 132.526 19.6697 136.429 23.967C140.332 28.2687 143.01 24.4007 144.821 28.3432C144.907 28.5272 146.169 25.912 146.246 26.0785C146.332 26.2581 145.529 29.4997 145.61 29.6617C147.081 32.5967 147.635 32.4828 150.83 33.3677C154.369 34.3533 156.761 33.8013 157.433 36.8721L157.605 38.4622C151.583 38.5717 146.382 38.9923 146.382 39.7457C146.382 41.533 153.117 46.518 151.043 48.3053C149.722 49.4399 144.249 39.5311 138.522 39.5311C132.794 39.5311 133.833 43.3728 133.833 54L189.51 53.9737C189.51 42.4047 190.794 38.4228 184.536 38.4228ZM175.641 27.4977C178.609 23.4282 182.707 20.8832 187.953 22.5565L187.935 22.6397C185.257 22.5872 182.757 22.9902 180.383 24.0853C178.854 24.8344 177.279 25.7412 176.289 27.1473C175.831 27.8701 175.409 28.7155 174.837 29.3639C173.626 30.6824 171.996 31.6505 170.231 32.0929L170.195 32.0141C172.205 30.643 174.075 29.2719 175.641 27.4977ZM155.731 33.3677C154.723 31.23 153.394 29.3639 151.873 27.6029C150.73 26.1748 149.15 25.1016 147.394 24.4927C145.384 23.7611 143.378 23.104 141.331 22.4776C139.325 21.8118 137.006 21.1022 135.731 19.328L135.799 19.2667C137.478 20.6072 139.565 20.9664 141.626 21.5884C144.739 22.5083 147.712 23.9232 150.367 25.7368C152.205 26.8801 153.879 28.387 154.823 30.3276C155.313 31.2782 155.695 32.2901 155.822 33.3458L155.731 33.3677ZM159.221 27.2437C157.483 25.0183 156.003 22.6178 154.751 20.1122C153.593 17.5758 152.581 14.9563 151.202 12.5295C148.488 7.75466 144.589 3.45737 139.048 1.73582L139.066 1.65258C143.45 2.13882 147.33 5.01244 149.631 8.59133C151.297 10.9087 152.069 13.6553 153.326 16.1522C154.651 18.6053 156.18 20.9488 157.424 23.4501C158.073 24.6854 158.699 25.9295 159.298 27.1955L159.221 27.2437ZM161.948 11.1014C161.585 10.1465 161.272 9.16522 161.182 8.11826C160.728 3.33908 166.587 1.45107 170.589 1.65258L170.598 1.73582C165.597 2.91419 159.802 4.93798 162.221 10.9919C163.142 12.8405 163.596 14.9694 163.165 17.0107C162.979 18.0226 162.67 19.017 162.153 19.915L162.066 19.8844C162.584 16.9319 162.838 13.9619 161.948 11.1014ZM167.331 22.1228C167.739 21.7417 168.143 21.3168 168.502 20.8919C170.235 18.7498 171.184 16.1872 172.464 13.7779C173.203 12.398 174.143 11.0357 175.5 10.0545C176.113 9.60763 176.834 9.16083 177.433 8.69211C179.33 7.26405 180.823 5.48556 182.825 4.11007C184.173 3.2033 185.675 2.53746 187.231 2.1432L187.263 2.22645C184.254 3.49243 182.103 5.61258 179.87 7.87734C178.736 8.98999 177.361 9.86609 176.008 10.7159C173.48 12.4944 171.951 15.3812 170.648 18.0971C169.963 19.4901 169.369 20.9664 168.298 22.2148C167.934 22.6354 167.467 23.0734 167.127 23.5071C166.024 24.8169 165.293 26.3895 164.785 28.0015C164.553 28.7331 164.372 29.4778 164.245 30.24H164.154C164.05 27.305 165.107 24.1992 167.331 22.1228Z" fill="#FA8314"/>
<path d="M54.1598 41.2412C45.4953 41.2412 46.2443 28.7102 35.2305 28.8275C29.378 28.8275 25.4227 34.3959 22.1538 34.7716C21.9115 37.7416 29.6868 43.8591 18.6504 43.5219C7.61398 43.1846 29.4737 47.3144 37.7043 41.7262C45.9349 36.1381 54.0406 47.252 54.0406 54.0666H20.7821C-7.33737 54.0666 -2.78796 35.5944 16.2785 35.5944C16.2785 35.5944 18.6332 34.5428 14.2209 33.6283C10.4488 32.3938 4.75626 29.9248 3.52175 24.9867C3.52175 24.9867 0.412638 26.0211 0.229742 25.8098C0.0468461 25.5985 3.07597 22.0946 4.61911 21.146C6.16225 20.1975 7.91112 20.7345 7.91112 20.7345C7.91112 20.7345 17.9425 25.0857 18.5417 23.5465C18.8313 22.8027 0.046875 12.0017 0.046875 4.16921C0.046875 -1.59186 54.0406 0.295868 54.0406 0.295868C54.0406 0.295868 55.9237 18.7686 44.8455 18.7686C35.5494 18.7686 15.3879 -0.755009 25.4687 10.9729C35.5494 22.7008 21.0565 19.6601 25.4001 22.7235C31.6413 27.4101 47.1184 19.637 51.8279 22.4263C56.5373 25.2155 54.1598 41.2412 54.1598 41.2412Z" fill="#FA8314"/>
</svg>
