<?xml version="1.0" encoding="UTF-8"?>
<svg id="Layer_1" xmlns="http://www.w3.org/2000/svg" xmlns:xlink="http://www.w3.org/1999/xlink" version="1.1" viewBox="0 0 1920 726.2">
  <!-- Generator: Adobe Illustrator 29.1.0, SVG Export Plug-In . SVG Version: 2.1.0 Build 142)  -->
  <defs>
    <style>
      .st0 {
        fill: none;
      }

      .st1 {
        fill: #fa8314;
      }

      .st2 {
        clip-path: url(#clippath-1);
      }

      .st3 {
        clip-path: url(#clippath-3);
      }

      .st4 {
        clip-path: url(#clippath-4);
      }

      .st5 {
        clip-path: url(#clippath-2);
      }

      .st6 {
        clip-path: url(#clippath);
      }
    </style>
    <clipPath id="clippath">
      <rect class="st0" width="1920" height="726.2"/>
    </clipPath>
    <clipPath id="clippath-1">
      <rect class="st0" x="1408" width="512.7" height="724.7"/>
    </clipPath>
    <clipPath id="clippath-2">
      <rect class="st0" x="1336.9" y="541.7" width="172.8" height="183"/>
    </clipPath>
    <clipPath id="clippath-3">
      <rect class="st0" x=".7" y="4.4" width="174.3" height="158.3"/>
    </clipPath>
    <clipPath id="clippath-4">
      <rect class="st0" x=".7" y="469.1" width="155.4" height="257.1"/>
    </clipPath>
  </defs>
  <g class="st6">
    <g>
      <path class="st1" d="M868.3,653.3c-4.1,1.2-8.7,2.5-13.9,3.7,4.4-1.5,9.1-2.8,13.9-3.7Z"/>
      <path class="st1" d="M1551,468.9l4.5,1.3.9-.7-9.2-3.1,3.8,2.5Z"/>
      <path class="st1" d="M1270.9,678.9c1.5.6,16.9,7.3-3.5,20.2-21.4,13.5-58.1,16.8-68.1,4.2-12.8-15.4,27.5-25.5,39.5-21.3,5.3,1.9,10.9,6.1,3.7,9-17.6,7.2-13.7,1.7-9.7.4,4-1.3,14.5-2.9,4.9-6.6-9.6-3.6-37.8,5-35.1,13.4,3.2,9.2,19.6,14.6,52.2,2.7,21.4-9.3,19.3-14.5,11.6-19.7-5.8-2.2-35.8-12.7-67.4-4.1-35.3,9.6-24.8,33.3-31.2,33.3s-19-25.6-53.7-17.1c0,0-10.7,4.3-12.6,12.7-1.9,8.4-7.4,5.5-4.6-3.2,2.3-7.4,10.6-11,13.1-11.9-19.9-9.4-40.6,14-40.6,14,0,0-17.2-14.1-34.4.2-17.2,14.3-5.1,19.6,19.3,19.6h234.4s31.6-5.4,31.6-36.6-28.4-24.8-49.3-9.2Z"/>
      <path class="st1" d="M249.5,20.9c16.3-.8,4.1,36.6,43.8,36.6s19.3-24,20.1-26.6c-.7-1.3-9.2-18.1,23.1-18.1s64.2,10.2,58.3,23.4c-5.9,13.2-25.4,14.8-36.6,5.7-11.2-9.1-1.7-18.1,13.7-10.6,6.2,3.4,3.4,6-4,1.1-4.7-3.2-11-2.3-11.4,2.5,0,4.5,9.8,10.6,20.1,9.8,10.3-.8,15-3.3,15-12.1s-29.5-16.4-54.1-16.4c-13.5-.5-25.8,5.4-18.8,18.9h0c6.1,7.7,15.6,23,47.8,28.2,32.1,5.3,51.7-21.2,58.1-31.8,0,0,.7-1.4,1.9-3.2.3-.6.5-1,.5-1,0,0,0,.1,0,.3,1.8-2.7,4.5-6.2,7.8-8.6,3.7-2.6,12-3.4,12.1-2,.1,1.4-3.6.9-8.2,2.7-4.2,1.6-11.8,9-12.8,16.8.1,10.6,5.9,25,40.7,12,13.8-4.5,11.6-28.5,28.1-44.2H182.3c23.9,34.7,51,17.4,67.3,16.5Z"/>
      <path class="st1" d="M1513.4,34.5c.9-1.6,1.6-2.8,2.1-3.6-1.3,2.1-2,3.6-2.1,3.6Z"/>
      <path class="st1" d="M1826.9,269.4h-.1c-.6-.5-2.6-2.1-5-4.7,1.8,1.5,3.5,3,5.2,4.7Z"/>
      <path class="st1" d="M283.1,716.8c-20.8-2.7-20.3,3.9-30.4-.5-6.4-2.8-10.4-3.8-14.7-4.2.1-3.1.2-6.2,3.9-7.3,8.7-2.6,73.5,13.2,73.5-1.3s2-10.4-3.2-11.2c-17.9-3.1-70.1,11-70.1,5.8s73.6-.2,73.6-35.9-67.8,37.4-67.8,28.9,68.3-40.6,68.3-64-28,6.3-44,25c-11.2,14-16.2,27.8-21.2,27.9-7.2,0,34.4-56.4,47.1-73.6,12.7-17.2,32.9-44.2,8.2-44.2s-50.8,110-62.4,110,55.6-110,28.8-110-39.3,101.5-39.4,112.1c-.2,10.6-9.4,23.1,1.2-34.9,10.7-58,29.9-77.2.4-77.2s-7.7,107.3-13.7,111.6c-6,4.3-9.5-37.1-7.5-82.4.8-17,3.5-29.3-15.1-29.3s-12.3,20-4.6,47.5c12.3,43.9,17.7,55.9,14.8,56.6-3,.6-26.1-47.8-27-80-.5-17.8-6.2-24.5-10.4-23.8-3.5.6-7.4,8.9-7.4,28.4s24,69.4,45.9,88.9c21.9,19.5-22.5-12.1-34-27.5-11.5-15.5-11.7-14.1-11.7.9,0,35.1,52.1,42.8,51.3,45.4-.8,2.6-26.5-.4-34.5-9.8-8-9.4-14.9-8.7-16.5-7.5-1.6,1.2,1.9,8.5.5,14.5-1.4,6.1,9.1,7,22.8,8.2,13.6,1.1,26.2.4,29.8,2.4,1.8,1,.6,4.6.9,8-2,.4-4.7.6-9.1.3-13.4-.9-11.5,7.5-23.6,3.9-12.1-3.6-21.8-5.2-21.8,1.2s6.2,6.4,6.2,6.4c0,0,56.7,0,100.9,0s45.9,2.1,45.9-7.1-13.2.6-34-2.1Z"/>
      <g class="st2">
        <g>
          <path class="st1" d="M1917.6,380.7c0-29.4,10.1-62.4-8.9-95.6-19-33.3-15.8-38.7,0-77.8,15.7-39.1,8.7-119.7,8.7-141.1s-24.6-27.3-20.9,29.2c2.6,48.4-36.8,46.7-28,91.9,8.7,45.1-25.9,40.9-15,78.7,10.9,37.8,13,33.2,39.4,64.1,26.3,30.9,16.4,89.3,10.9,71.5-5.4-17.8-22.9-57.5-48.4-74.7-19.5-12.2-32.5-36.7-23.6-66.5,11.4-25.3,6.5-23.7,13.8-51.4,7.3-27.8-7-26-11.3-50.6-4.2-24.5-7.8-47.9-14.7-41.7-7,6.2-17.2,44.9,0,67.1,12.3,18.5-.5,45.8-8.2,59.8-7.8,14,5.3,32.8,8.7,40.2-14.3-12-27.9-27.9-30-63.1-1.9-32.9-10-60.4-12-76.4-1.9-16,15.1-24.2,39.4-37.8,35.9-20.1,50.7-86.5,35.8-87.8-14.8-1.3-23.4,17.8-29.7,34.8-6.3,17-26.7,9.7-29.7,30.7-3,21-13.2,32.4-17.9,28.6-4.7-3.8,23.7-59.1,13.9-84.8-12-35.3-43.7-41.5-37.5,5.5,6.2,47-2.8,50.1,4.9,70.6,7.7,20.5-15.3,5.1-17.9-31.8-2.7-36.8-35.1-64.7-58.9-59.1-23.7,5.5-7.1,40.3,12.6,55.5,19.7,15.1,41.5,36.3,37,45.2-4.5,8.9-17.3-16.9-44.8-31.8-27.4-15-35.9-2-33.5,14.6,5.3,30.8,83.4,30.4,100.2,42.9,16.9,12.6,24.7,57.6,25.2,70.8.4,13.1,4.9,31.7,6.1,38.1-17.8-2.6-24.5-18-39.3-38.5-14.9-20.5-18.4-4.2-40.7-32-22.4-27.9-25.9-19.5-25.9-9s6,31.6,21.9,40.4c15.9,8.8,24.4,53.8,53.1,53.9,28.7.1,35.7,3.5,39.7,5.8,13.3,27.1,49.2,58.2,45.5,61.2-3.7,3-13.4-1.2-28.1-14.7-25.3-23.1-38.2-6.3-57.6-26.8-19.4-20.5-36.4,2.6-44.8-33.1-8.5-35.7-32.3-68.9-32.3,7.3s59.2,61.5,90,59.5c30.7-2.1,29.5,26.1,55.2,27.7,25.7,1.5,67.7,9.8,72.5,73,4.9,63.2,14.6,78.2,25.5,86.3,0,0,.2-11.9.2-30.5s-9.3-32.5-4.6-44.1c8.1-19.7,4.1-54.1,4.1-54.1ZM1870.1,247.1c4.3-26.1,22.7-49.1,23.4-75.8,0-5-.7-10.6,0-16.1,1.2-10.9,6.9-20.1,10-30.2,2.4-7.5,3.5-15.4,3.8-23.3.1-2.6,0-5.3.1-7.9h.3c1,10.5.7,21.5-2.2,31.8-2.8,10.4-8.2,19.7-9.3,30-.6,5.1,0,10.2,0,15.8-.2,16.3-7.3,31.3-13.3,45.8-3.8,9.7-7.9,19.6-9.4,30-1,10.5,2.2,20.9,6,30.6,7.4,19.4,19.4,37.6,30,54.8-18-22.7-41.8-54.5-39.4-85.5ZM1775.7,255.4c-10.7-.3-21.5-4.5-29.4-12.6-7.4-8.4-12.5-18.1-19.7-26.5-6.9-8.9-16.5-13.7-25.7-19.5-8.6-6.3-16.2-17.9-15.8-28.7,2.5,10.9,9,20.1,17.2,26.7,8.4,6.6,17.8,12.5,25.4,20.3,7.9,7.7,13.8,17.5,20.7,25.5,7.2,7.7,17.1,12.4,27.5,14.5v.3ZM1822.8,273.1c-2.2-5.7-3.3-11.8-3.1-18.1.4-18.8,13.4-33.5,15.8-51.8,2.3-12.3-2.2-23.9-9.4-33.5-5.7-10.6-8.1-24.6-5.5-35.8,0,12.2,2.1,24.2,7.4,34.7,2.9,5.1,5.8,10.7,7.3,16.6,9.7,35.3-20.9,53.8-12.2,87.9h-.2ZM1809.8,331.1c-7.2-4.7-12.3-12.3-20.9-14.2-8.1-2.1-16.8-2.3-25-4.8-8.4-1.9-15.4-7.9-23.7-9.9-8.1-2.1-16.9,1-25.4-1.7-19.3-5.5-25.7-23.1-27.5-42.4-.6-8.8-1.2-18.9.6-27.1.4,24.2.8,56.8,27.1,65.2,8.1,2.9,16.7-.6,25.4,1.1,8.6,1.4,15.6,10.4,24.1,12.2,8.1,2.3,16.6,2.2,25.1,4.6,8.9,1.8,14.4,10.1,21.3,15.1,6.7,5.3,15.3,6.8,23.6,8.6-7.9,0-17.6-1.9-24.8-6.7Z"/>
          <path class="st1" d="M1721.6,597.3c-2.1,1.1-10.5,1.8-20,6.5-10,4.9-15.7,13.9-20.7,14.8-5,1-10.8-4.1-21.4-2.1-9.5,1.8-17.7,8.3-21.2,6-18.1-15.1-3.5-36.1-1.4-47.7,6.9-44.7-27.9-27.8-36.6-34.8-3.2-2.6,8-13.5,22.8-23.4,14.8-9.9,29-15.4,36-13.9,7,1.5-20.3,37.9,14.8,38.9,0,0,33.1-1.2,46.3,13.8,9.4,8.9,5.7,39.7,1.4,41.8Z"/>
          <path class="st1" d="M1917.8,647.4c0,38.3-10,43.5-17.8,48.7-7.8,5.2-17.6,8.2-35.5-9.8-17.9-18.1-43.1,11.5-49,4.6-5.8-6.9,7.1-19.2,10.4-36.1,3.3-16.9-4.2-36.4-10.9-43.4-8.6-12.5-22.2-12.5-13.8-25.9,22.3-32.3,44.5-84.9,31.5-111.9-14.3-21.2-42.4-14.9-54.4-10.5-9.2,3-18.4,9.5-19.3,8.6-.9-.9,1.8-7,4.7-10.9,2.8-3.9,7.4-11.2,9-19.4.7-3.6.6-7.8-3.2-9.8-1.8-1-4.1-1-6,.2-5.9,3.8-3.5,11.4-2.4,7.5,1.1-4,6.4-7.1,8.2-3.1,2.7,6.7-18,31.7-18,41.9s4.1,1,9.4-2c38-21.6,58.6-9.7,66-2.7,19,21.1-17.8,90.4-24.2,101.8-.1.3-12.5,18.7-18.4,25.5-14.9,19.9-51.3,31.3-84.8,33.8-33.5,2.5-57.4,3.5-59.7-.4-2.3-3.9,1.5-7,3.1-7.5,1.6-.5,8.6-1.9,16.7-5.3,8.1-3.3,19.3,2,24.7.6,11.4-3.4,15.6-10.7,32.5-16.7,16.8-5.9,24.8-2,27.1-2.8,2.3-.8,3.2-3.7,4.2-7.5,2.4-8.9,4.5-21.2,12.9-30.9,3.4-3.9,9.7-9.2,10.8-11.2,1.2-2,1.3-2.8,1.2-7.1-9.2-44.2,5.2-50.3,1.3-50.3s-9.3,14.1-9.1,27.4c.1,13.3,2,22.4.8,25.6-1.2,3.2-12.7,10.2-17.2,20.1-4.6,10-7.6,26.7-9.3,28.2-1.7,1.6-7.5.7-9-.6-1.4-1.3,8-24.8-1.9-41.2-5.2-8.1-22.5-13.5-25.7-16.2-3.3-2.8-2.8-9.4-1.7-14.7,2.4-11.3,11.2-18.8,15.5-20.8,4.3-2,1.8-4.4-3.1-1.4,0,0-14.3,7-17.4,21.1-.9,5.5.4,12.7-1.6,14.1-2,1.4-21.9,2.1-25.2-3.9-3.3-6,3.2-36.2,55-47.6,0,0,8.5-9.9,9.2-21.6,0,0-12.8,9.9-16.5-1.1-2.8-8.2-3.5-31.9,7.9-45.7,0,0,3.7,5.3,11.5,4.6,7.8-.7,16.4-2.7,14.9,9.7-1.5,12.4-2.8,21.1-.4,21.1s3.7-11.2,4.2-16.9c.5-5.7,1.9-9.4.8-13.2-1.2-3.7-7.3-6.1-14.1-5.4-6.8.7-12.2-.3-16.7-4-4.5-3.6-7.8-10.8-2.4-18.4,5.4-7.6,16.1-1.2,16.1-1.2,5.5-10.4,32.2-12.6,44.5.8,12.3,13.4.5,33.5,16.2,43.4,15.7,10,29.3,3,48.7,10.9,19.4,7.9,7.8,47.1,37.3,63.3,29.5,16.2,13.7,56.6,13.7,73.9s18.6,23.2,18.6,61.5Z"/>
          <path class="st1" d="M1907.8,716.9s-7.5-9.6-25.8-10.8c-18.3-1.2-21.1-5.4-27.2-10.3-6.1-4.8-19.2-9.5-33.2,1.7-14,11.3-54.4-1.4-84.5-18.8-14.1-8.6-29.1-14.4-44.9-14.1-8,.1-16.3,1.9-24.7,5.6-19.7,7.1-18.5-2.5,6.4-9.8,2-.6,4-1,6.1-1.4,23.4-4.1,48.4,5.4,60.2,13.3,11.2,7.5,22.8,13.3,33.5,16.3,11.1,3.1,22.2,1.4,28.8-3,6.6-4.4,9.5-10.6,13.5-19.6,14.9-31.6-9.2-63.5-22.8-63.5s-13.8,11-20.4,15.7c-30.1,21.3-70.1,20.2-84.5,21.5-13.6,1.2-155.6,17-155.6,62.4s51.2,21.7,51.2,21.7l66.1-1.1,209.6-.6s22.3,1.7,41.4,1.7,15.2-8,6.6-7Z"/>
          <path class="st1" d="M1637.4,641.2c.9-2.4-5-7.1-4.3-14.3.6-7.2-10.7-12.4-8.6-30.9,1.6-12.8,7.7-20.4,5.7-22.6-2.1-2.3-40.6-17.5-53.7-15.4-27.3,4.4-28.6,43.9-13.3,71.2,7.3,13.3,14.1,27.4,18.4,27.4,4.3,0,27.2-5.9,29-8.5,1.7-3.9-.8-28.4-6.4-38.7-5.6-10.3-15.4-19.6-13.8-20.7,1.6-1.1,6.5,5.5,16,16.5,9.5,10.9,11.4,39.8,13.7,41s16.6-2.4,17.5-4.8Z"/>
          <path class="st1" d="M1676,409.7c-20.6,25.4-4.7,34.8-28.4,52.5-25.9,18.4-5.4,25.2-1.4,29.1,4,3.9-8.4,11.1-14.7,7.6-11.2-8.6-7.5-33.9-.9-43.9,6.6-9.9,8.2-11.3,12.7-15.9,12.8-14.3,22.3-28.3,28.7-47,2.1-6.3,3-12.8,3.1-19.3h-.6c-2.1,6-4.2,12-7,17.5-8.4,16.1-22.7,31.1-32.2,46.6-7,11-11.4,15.7-15.1,28.3-7.5,21.4,3.8,33.7,3.8,37.2,0,1.9-2.2,5.1-6.7,3.3s-11.6-14.3-12.3-15.4c-4.3-6.1-8-12.4-11.5-19-1-1.9-6.5-15.2-7.9-20.4-4.8-14.7-.7-29.5,6.5-42.5.1-.2.2-.4.3-.7,3.4-6.4,7-13,9.6-20.1,5.5-14.7,6-30.8,2.2-45.9h-.6c-.2,15.3-2.1,30-7.8,43.6-1.5,4.2-3.4,8.3-5.3,12.4-4.5,9.8-10,19.6-10.9,30.5-.8,7.9-.3,16.4,1.3,23.8,9.6,37.7,33.1,55.6,30,59.7-3.1,4-23-10.8-35.5-17.5-6.8-3.5-13.2-7.7-19.1-12.7-5.9-5.1-11.5-11.4-18.7-15-14.4-7.7-31.2-10.4-47.3-7.1-14.8,4.5-30.3,4.3-46.2,3.3v.6c11.2,4.2,23.7,5.7,35.8,4.1,8-.9,14.8-3.2,22.8-4.2,18.6-3.5,29.3,4,45.4,18.4,21.5,19.9,56.1,31.1,56.6,37.6.5,6.5-35.7-.6-84-32.3-19-12.5-42.3-5-60.2-6.2-27.6-2-50.9-16.1-52.4-25.6-1.5-9.5,27.7,6.3,47.3-4.9,6.5-3.7,38.6-14.8,56.9-10.1,27.1,6.5,58.4,37.6,61.2,34.5,2.8-3.1-12.5-17.7-14.1-34.8-.6-6.2-.3-13.3,1.3-21.1,0-.2.1-.5.1-.7,1.9-9.2,4.5-16.4,7.2-22.5h0c5.4-11.8,11.6-19,16.5-26.7,5.3-8.4,8.9-17.2,7.9-32.8-2.4-37.5,45.7,11.6,23.4,58-22.3,46.5-17.2,64.4-9.9,67.9,7.3,3.5,4.2-20.5,10.2-32.7,16-32.3,35.6-19.4,48.5-54.1,14.7-42.4,32.1,9.5,11.5,34.9Z"/>
        </g>
      </g>
      <g class="st5">
        <path class="st1" d="M1437.4,707.5c11.2.5,20.2,12,38.3,7,18.1-5,30.7-1.1,30.7,7.3s-15.7.8-59.3,2.2c-43.5,1.4-71.8,0-83.5,0s-38,.6-21.4-5.9c16.6-6.5,28.8-9.4,43.5-7.2,14.6,2.2,19.1,4.3,24.3.5,5.1-3.8,14.5,0,13.2-4.1-1.1-3.4-35,2.6-44.7-6.1-9.7-8.7-19.4-.8-24.4-15.3-2.5-7.2-13.2-4.5-11.1-20.3,2.1-15.7-3.4-23.8,5.4-23.5,8.8.3,9.2,12,5.7,22.8-3.5,10.8,13.6,4.6,18.4,15.3,4.7,10.8,16.8,16.5,11.9,4.4-4.9-12.1-36.7-43.6-22.2-74.6,15.1-32.4-7.9-37.9-.6-54.2,7.3-16.3,34.3,10.9,22.3,48-12,37.1,1.2,20.6,2.1,43.2.8,22.6,12.7,45.7,20.7,47.6,8.1,1.9-2-16.9-8.2-31.2-6.2-14.3-5.1-28.7.1-37.3,5.2-8.6-3.2-12.6-4.1-26.7-.8-14.1,6.7-14.6,5.9-31-.8-16.4.3-33.9,16.6-24,16.3,10-7.3,24.7.7,42.8,7.9,18.1-8.5,41.4-2.3,54.3,6.1,12.9,6.4,19.2,4.2,30.4-3.9,19.7,8.1,16.4,6.5.3-1.5-16.1,7.7-11,3.2-34.2-2.6-17.3,4.6-30.2,13.6-39.6,9-9.4,16-33.9,29.9-42.6,14-8.7,21.3,25.3-6,40.1-27.3,14.7-22,40.7-20,62,1.9,21.3-11.1,22.6-16.6,29.4-5.5,6.8,13.8,6.8,17.5-7.8,3.7-14.6,17.6-15.6,11.4-34.4-6.2-18.8,17.4-20.4,25-38.6,7.6-18.1,33.8-2.6,23,13.1-10.8,15.7-40.7,10.7-31.7,29.3,10.5,23.4-31.6,45.5-20.3,44.4,11.3-1.1,11.2-11.1,27.1-12.2,15.9-1.2,6.8-20.6,11.3-31.4,4.6-10.8,15-1.9,15.7,16.9.7,18.7-6.5,30.8-26.1,28.2-19.6-2.6-23.2,14.1-37,9.9-13.8-4.2-20.1,2-8.9,2.5Z"/>
      </g>
      <g class="st3">
        <path class="st1" d="M2.2,162.7c2,0,68.2-43.1,73.5-44.4,7.8-1.9,17.8-4.2,24.8,1.8,7,6,26.3,38.8,37.9,38.8h8.7c46.5,0-44.9-34.5-39.9-40.4,5-5.9,67.3,51.1,67.3,17.4s1.2-8.4-.3-10.4c-10.6-14.2-60.3-7.6-60.3-12.1s60.1,12.9,60.1-20.9-55.4,15-57.4,12.5c-1.7-2.2,55.3-30.7,57-35.7,1.7-4.9.6-14.5.6-19.3s.8-12.8-.5-13.5c-9.6-5.4-55.9,60.3-59.3,58.6-3.4-1.7,48.1-54.4,22.2-46.9-3.6,1-10.5,3-13.3,5.8-13.7,13.8-16.6,46.5-19.4,46.5s16.6-50,3-46.4c-2.4.5-8.7,2.1-10,3.4-7.4,6.6-1.6,25.7.6,39.9-5.3-7.6-2.2-38.5-18.2-34.2-2.4.7-7.3,3.5-8.7,6.4-2.7,8.1,25.9,29.7,24.4,33.4-1.6,3.7-29.7-36.3-29.7-18.2s25.4,22.7,26.1,24.5c.7,1.7-17.7,4.9-17.7,4.9,0,0-34.5,15.7-35.6,14.9-1.1-.8,19.7-12.2,25.9-23,4.3-7.2-4.3-34.5-.1-39.6,4.1-5.1,104-32.3,108.3-37.2,4.3-4.9,1.5-19.7-2.7-23.1-23.2-12-93.3,52.9-98.2,49.1-5-3.7,73.7-49.7,48.1-49.7s-48.9,46.6-54,43.4c-5.1-3.3,41.4-43.7,15.7-43.7s-18.8,46.2-23.7,46.2S69.1,4.5,45.9,4.5s6.7,42.6,3.3,44.6c-3.4,1.9-18.4-44.1-31.2-44.1s-13.5,1.1-13.5,12.1,43.3,37.6,41.7,39c-1.6,1.5-44.9-34-44.9-13.5s41.8,15.2,41.6,17.6c-.2,2.4-41.6-4.7-41.6,9.6s45.1-3.9,45.9-1.9c.8,2-45,9.7-45,40.8s41.3-35.3,48-33.9c6.7,1.4,13.3,19.9,9.8,29.1-2.1,5.5-55.9,33.2-57.8,36-1.9,2.8-2,22.7,0,22.7Z"/>
      </g>
      <g class="st4">
        <path class="st1" d="M143.8,617.6c-6,9.2-1,12.8-5.3,21.8-4.3,9-6.9,9.7-6.7,14.7.2,4.9,7.5,15.8,7.5,34.3s-9,30.5-20.2,35.1c-11.2,4.6-22.2,1.9-54.1,1.9-68,0-55.1-30.3-43.6-22.3-17.6-31.1-25.7-88.8-8.3-74.6-12.1-26,0-26.2-9.5-55.2-9.4-29,5.5-24,14.4,4.6,8.9,28.7,26.8,29.4,13.5,59.6-13.2,30.1-4.8,53.7-.5,53.7s2.4-14.4,4.5-27.6c2.5-15.7,14.5-36.3,19.7-15.6,7.9-10.8-8.2-18.8-10.9-33.3-3.1-12.7,2.8-23.4,7.7-25.1,4.9-1.7-4.8,20.2,13.9,29.3,11.9,6.6,14,20.3-1.5,36-13.3,11.1-29.9,36.6-20,50.1,9.9,13.5,23.6,13.9,25.4,10.7,1.7-3.3-14.9-13.6-9.8-37.1,5.2-23.6,30.7-38.7,43-33.5,16.3,6.2,9.2,54.7-4,36.6-8,9.2,6.3,15.4-.6,23-11.7,8.7-20.7-11.8-7.1-27.9,10.6-11.5,22.3-28.9,5.1-24.1-17.2,4.8-31.7,40.6-22.8,55,8.8,14.4,30.8,20.6,45.1-.4,4.9-6.3.2-24.9,9.7-25.9-2-20.6-16.7-46.7-41.9-67.9-25.7-19.8-27.5-28.5-23.4-42.2,0,0-2-.6-2.7-4.3-11.3.7-25.4.8-26.4-11.4-1.1-13.4-16.2-5.6-16.3-22.5-.1-16.9-4.8-14.5-11.4-18.4-6.6-3.9-4.7-19,3.6-21.3,8.4-2.3,18,8.1,22,22.3,4,14.2-3.2,19.3,2.4,22.4,5.6,3.1,12.6,5.3,13.6,14.4.5,4.6,7.3,8.2,12.2,10,0,0,.7-1.2,2.6-1.8-8.2-5.3-18.8-19.2-13.2-29.7,5.8-10.9-4.5-9.8-.6-24.4,2.2-7.8,2.5-9.7-14.1-17-16.6-7.3-11.1-32,6.1-14.7,17.2,17.3,26.9,11.2,28.1,24.9,1.2,13.6-8.3,21.8-7.8,34.7.5,12.9-1,17.7,5.2,25.9.4,0,.9,0,1.3.2-1.1-6.6-3.6-21.8,5.9-32.5,9.4-10.7,15.2-22.4,4.2-31.8s-14.7-24-5.8-24,6.8,9.2,19.4,14.7c12.7,5.6,5,24.4,1.7,30-5.8,9.7-1.9,15.6-12.3,23.4-8.9,6.6-10.8,17.5-11,20.7.1,0,.9.5,1.1.5,2.7-4.8,9.7-13.2,18.2-18.2,11.1-6.6,11.1-2.3,11.7-20.8.6-18.5,18.5-26.6,29-17,10.5,9.6-15.4,17.1-15.4,33.2s-12.1,10.2-20.4,14.5c-7.4,3.8-10.4,10.4-19.4,12.5.5,1.5.2,2.4,0,3.3,5.1,1.2,5.5-1.4,16.6-2.1,11.1-.7,8.1-13,22.6-10.3,14.5,2.7,17.5,0,24.7-8.2,11.7-15.3,23.5-6,13.5,9.2-12.6,18-32.6,5.3-49.1,17.5-16.5,12.2-28.5.8-31.5-3.2-.9.4-1.7.7-2.5.6-2.5,10.7,1.1,20.2,21.7,33,31.3,21.8,31.4,38.5,35.1,37.9,1.8-.3,2.1-8.8-.9-19.8s2.7-16.7,7.8-7.1c-3.8-19.8,5.9-12.2,9.9-31.4,4-19.2,11-13.2,10,2-1,15.3-1.2,18.6-9,30.2Z"/>
      </g>
    </g>
  </g>
</svg>