<svg width="100" height="101" viewBox="0 0 100 101" fill="none" xmlns="http://www.w3.org/2000/svg">
<g clip-path="url(#clip0_769_7296)">
<path d="M84.5086 61.7753C74.0077 63.8859 70.4684 60.2484 60.2204 60.2484C49.9625 60.2484 34.3278 64.8196 20.5794 59.4315C6.92826 54.0726 3.35986 57.7587 2.12507 59.4315C-1.32661 63.6136 -7.82167 100.825 50.5848 100.503C99.0348 100.503 97.6056 70.7231 97.7222 65.7435C97.8486 60.7639 95.0192 59.6649 84.5086 61.7753ZM44.4495 65.9867C53.1905 67.8442 54.3282 64.7807 59.5689 64.0513C64.8096 63.3218 64.3527 68.1847 61.251 69.3518C58.1493 70.5092 40.3172 71.8708 36.4377 69.7408C34.1139 68.7488 35.7085 64.1388 44.4495 65.9867ZM86.0156 83.8918C84.2557 85.6911 70.2059 90.5248 54.7851 89.455C39.3644 88.3949 30.1275 91.5169 21.435 90.0288C12.7426 88.531 11.012 85.2438 14.7358 86.1677C14.7358 86.1677 22.738 89.0465 36.4669 87.4418C50.2056 85.8467 63.4776 88.4047 72.8701 86.1677C82.2625 83.921 87.7755 82.0829 86.0156 83.8918ZM91.6647 74.5357C89.6326 76.6169 73.4048 81.7035 55.5922 80.4684C37.7698 79.2332 27.0939 82.8512 17.0597 81.1298C7.01574 79.3986 5.02253 76.1111 9.32984 77.1713C9.32984 77.1713 18.5667 80.4975 34.4348 78.6497C50.2931 76.8018 65.6264 79.7583 76.4773 77.1713C87.338 74.5843 93.6969 72.4544 91.6647 74.5357Z" fill="#FA8314"/>
<path d="M8.37526 46.4057C10.5234 46.2474 -0.940789 37.8108 3.28588 27.6118C7.18643 18.6307 8.16019 39.7276 9.9919 38.953C11.8236 38.1783 9.48364 23.5762 15.6087 14.1976C21.7337 4.81896 27.2143 11.0205 20.0896 25.3468C12.9648 39.6731 15.9811 38.7346 17.8722 36.0014C19.7632 33.2682 22.468 27.6234 23.9642 30.9257C25.4604 34.2279 21.5353 42.9904 23.7964 48.1925C26.0576 53.3947 24.9317 55.6838 23.8444 55.6819C22.7571 55.6799 16.2554 43.8838 14.9892 44.1552C13.7229 44.4266 19.7263 53.7156 20.8569 56.1993C21.9875 58.6831 18.4692 58.0529 12.8278 53.7673C7.18641 49.4818 0.753542 49.4818 0.732482 42.832C0.711422 36.1823 6.22715 46.564 8.37526 46.4057Z" fill="#FA8314"/>
<path d="M73.4271 14.1559C68.7352 12.7617 64.8062 17.4949 65.0788 21.1954C65.3514 24.8959 83.0219 36.2677 85.7061 33.9241C88.3903 31.5805 78.119 15.5501 73.4271 14.1559Z" fill="#FA8314"/>
<path d="M65.5026 15.9382C64.2936 16.4014 62.8259 15.7028 61.7956 15.4493C55.3852 13.8721 46.5541 15.8598 47.0745 12.494C47.6785 8.58719 61.5454 14.0908 62.1884 13.4476C62.8314 12.8045 35.1229 2.94505 41.1226 1.18284C47.1224 -0.579364 62.8653 12.4 63.685 11.7555C64.5048 11.111 45.7124 -0.547162 51.9366 0.0200366C58.1608 0.587235 63.0574 9.45552 63.6306 8.75105C64.2037 8.04659 62.8004 5.85971 60.2969 2.81736C57.7933 -0.224995 62.5333 -1.44725 64.3055 3.06593C66.0777 7.57911 65.7813 8.69448 66.659 10.5572C67.2939 11.9047 67.7807 12.2495 67.6899 13.2313C67.5991 14.2131 66.7116 15.4749 65.5026 15.9382Z" fill="#FA8314"/>
<path d="M72.0065 52.2308C71.2537 50.9518 68.5468 45.7797 72.8254 41.5747C77.1041 37.3698 74.8749 48.5967 76.5152 48.5967C78.1555 48.5967 77.2568 39.1282 83.3678 37.1931C89.4787 35.258 82.2151 45.8878 84.198 46.2474C86.1809 46.6071 93.8225 24.6579 98.2214 34.5034C102.62 44.3489 83.1282 52.6918 84.0492 54.0211C84.9701 55.3503 99.4984 43.4576 99.9678 48.2409C100.755 59.2572 87.0055 60.3092 79.8152 57.8232C74.3757 55.8911 72.7593 53.5099 72.0065 52.2308Z" fill="#FA8314"/>
<path d="M45.1988 47.0973C45.014 48.595 42.9235 49.373 40.9303 53.0883C38.9371 56.8134 38.542 61.2442 35.816 59.1068C33.09 56.9694 30.6988 59.3326 31.7071 55.9322C32.1827 54.3877 31.9877 53.7685 31.9877 53.1579C31.9877 52.5472 29.657 49.8121 29.6553 48.3482C29.6535 46.8842 30.9637 45.6572 31.7809 46.2608C32.5982 46.8644 32.9034 51.4106 33.5479 51.3258C34.1923 51.241 33.9686 48.7701 33.9395 48.0407C33.8325 45.5216 34.0076 43.0512 34.6687 41.7092C35.3396 40.3669 38.0134 40.9019 38.7815 42.0009C39.5594 43.0902 37.0897 50.1901 38.2857 50.7153C39.4816 51.2404 41.5915 45.8912 42.4083 44.5393C43.2347 43.1973 45.3835 45.5898 45.1988 47.0973Z" fill="#FA8314"/>
<path d="M63.8655 42.5923C61.8501 46.6742 54.5939 43.6653 54.5939 43.6653C54.5939 43.6653 54.7041 48.1129 50.9054 48.1129C47.1066 48.1129 46.6976 42.5943 46.6976 42.5943C46.6976 42.5943 43.5084 43.534 41.7137 41.6053C39.9189 39.6766 40.2005 36.891 34.681 38.9788C28.8476 41.1853 24.0087 36.2443 27.7622 33.7257C25.6692 32.3992 23.7431 23.8794 30.6313 25.1458C33.6198 20.1806 38.5205 24.8493 39.8823 24.5665C41.5465 24.1148 41.5381 20.6685 46.3129 19.3971C51.0795 18.1174 54.2153 27.1929 54.2153 27.1929C57.9533 26.1557 61.6494 25.8295 61.4236 34.1272C61.4236 34.1272 66.441 36.3355 63.8655 42.5923Z" fill="#FA8314"/>
<path d="M46.8869 58.2339C45.3181 56.7976 47.9307 52.4386 50.6585 51.0375C53.3863 49.6364 53.2971 55.1424 55.0365 54.5318C56.7759 53.9211 55.6227 47.6446 60.9139 47.6446C64.4252 47.3076 59.2195 54.3289 60.1345 54.3289C61.0495 54.3289 64.3586 49.6653 66.6554 49.6218C68.9523 49.5784 68.274 53.2697 64.6448 55.1792C61.0156 57.0887 69.1757 53.5237 70.5903 57.0472C72.0049 60.5708 64.7283 57.7427 60.2878 57.2736C55.8474 56.8045 48.4557 59.6703 46.8869 58.2339Z" fill="#FA8314"/>
<path d="M41.5127 16.8532C39.3736 20.16 33.3065 20.7727 30.3215 19.557C27.3365 18.3315 26.1989 16.0071 26.1502 13.7021C26.1114 11.3873 27.4629 8.96559 30.1756 8.97533C32.4897 8.9948 33.3198 10.5777 33.5495 10.2493C33.7793 9.92096 32.2661 6.99123 29.5047 7.26358C26.2961 7.58449 26.2766 5.50327 28.4935 4.77384C32.0156 3.72925 33.3694 7.61369 33.7439 7.61369C34.1184 7.61369 34.0167 3.55396 37.0354 2.915C40.054 2.27603 35.0681 7.33117 34.5481 8.40553C34.028 9.47989 34.1875 10.0883 34.3565 10.2591C34.5255 10.4299 36.3984 6.42717 39.218 7.1274C42.9517 8.06104 43.6517 13.5465 41.5127 16.8532Z" fill="#FA8314"/>
</g>
<defs>
<clipPath id="clip0_769_7296">
<rect width="100" height="100.505" fill="white"/>
</clipPath>
</defs>
</svg>
