<svg width="100" height="99" viewBox="0 0 100 99" fill="none" xmlns="http://www.w3.org/2000/svg">
<g clip-path="url(#clip0_763_7271)">
<path d="M52.6701 70.1362C27.7312 78.1127 7.96926 64.8224 5.32141 70.2267C4.07892 72.9018 5.78707 74.5916 7.12166 74.8632C8.4563 75.1347 10.4575 75.6187 11.9884 76.875C13.2913 77.9441 18.2131 91.3117 38.3412 95.2735C36.9138 95.3897 33.5804 95.805 36.1966 97.0467C39.4609 98.596 51.9663 100.813 65.4691 96.3792C69.4959 95.057 69.3982 94.3498 67.2797 94.0079C83.9693 88.8341 89.1567 76.9011 89.737 75.7502C90.4799 74.2764 92.1751 74.7654 93.0879 74.5698C94.0008 74.3742 95.5655 71.9944 94.4245 71.0164C93.2835 70.0384 77.6091 62.1597 52.6701 70.1362Z" fill="#FA8314"/>
<path d="M20.3042 68.698C22.2152 68.3336 17.2829 57.8308 19.3678 58.0115C21.4527 58.1923 22.4577 69.1019 24.6186 69.3832C26.7797 69.6645 30.6324 66.802 34.1171 63.1027C47.5925 50.4021 46.5955 43.2873 38.691 43.5055C30.7864 43.7237 29.4712 56.4496 26.8341 56.012C24.1969 55.5744 35.4525 26.3791 20.539 29.426C5.62537 32.4729 18.6333 50.0908 16.1776 51.7335C13.7219 53.3762 4.00886 22.9591 0.292254 42.1699C-2.71212 59.6582 18.3932 69.0625 20.3042 68.698Z" fill="#FA8314"/>
<path d="M77.1461 37.9474C77.1461 37.9474 73.5275 35.1455 68.4514 35.7632C63.3753 36.381 60.023 41.3751 55.7353 45.9256C55.4997 46.1756 59.317 50.0499 59.0694 50.311C58.8139 50.5803 55.0916 46.6383 54.8216 46.9197C53.9646 47.8129 53.0299 48.7673 51.9895 49.7869C44.5229 57.1052 38.2217 61.2891 37.7653 64.2442C37.3089 67.1994 44.6847 64.3775 52.1461 61.2891C52.4823 61.1497 50.0316 56.906 50.3652 56.7658C50.656 56.6435 52.986 60.9719 53.2747 60.8489C63.2195 56.6155 74.8905 51.6822 77.4069 48.1839C80.0801 44.4674 78.6131 40.3272 78.6131 40.3272C78.6131 40.3272 82.1974 40.1282 85.3613 40.3924C88.5252 40.6567 99.9335 41.7617 98.046 33.7497C97.0904 30.8622 86.3994 37.5704 86.3067 36.2033C86.207 34.8351 98.1406 33.0797 93.8912 24.6071C90.5722 17.5356 86.4572 32.378 86.0663 30.4692C85.6741 28.5672 92.7984 18.2471 86.7702 12.9254C83.3511 10.2627 83.0793 21.9964 81.3679 28.7538C79.6563 35.5112 77.1461 37.9474 77.1461 37.9474Z" fill="#FA8314"/>
<path d="M21.0902 16.5255C22.2395 18.2956 19.1421 21.6997 22.076 26.2433C25.4691 30.9914 27.6853 19.4028 27.6203 14.6033C27.5553 9.8038 29.8514 16.8786 32.5515 19.2865C39.5522 26.9865 57.0959 20.6545 46.3371 16.7391C35.5859 12.8251 29.0984 5.98184 46.8983 12.1375C64.6982 18.2931 60.42 3.81196 48.5406 0.836769C42.3243 -0.600416 34.857 -0.656257 24.8561 4.50905C15.9889 8.84399 3.78193 23.2604 7.81973 27.9594C11.8575 32.6583 19.9409 14.7554 21.0902 16.5255Z" fill="#FA8314"/>
<path d="M99.9007 47.1584C98.8576 39.7378 82.5213 56.6219 81.5107 56.6219C80.5001 56.6219 84.6403 51.9928 81.5107 51.895C78.3811 51.7971 69.4323 61.1245 69.4323 61.1245C66.8806 63.7177 71.8275 65.0279 74.7847 63.9527C77.7422 62.8775 83.8126 58.2642 85.0029 58.2642C86.1933 58.2642 76.4093 66.0316 79.4405 66.0316C82.4717 66.0316 92.8372 65.8703 95.7243 61.3852C98.6094 55.6641 90.4431 58.7936 91.9426 57.4244C93.4423 56.0552 100.944 54.579 99.9007 47.1584Z" fill="#FA8314"/>
<path d="M58.9531 23.6853C58.9924 27.1187 61.6418 25.2749 62.2408 29.1959C62.8397 33.1168 66.4413 32.5028 66.9332 29.5404C67.4252 26.578 66.2785 24.3082 64.9179 22.9436C63.5573 21.5789 59.3222 20.7535 58.9531 23.6853Z" fill="#FA8314"/>
<path d="M66.3548 17.5031C67.259 16.3746 68.5696 15.5545 69.4387 15.092C68.9762 16.8863 68.829 22.2622 72.5298 23.8953C76.6791 25.7176 78.9711 21.316 78.7888 19.3394C78.6346 17.6993 77.3169 15.2041 75.6277 13.9565C78.0879 14.4611 80.0785 15.5475 81.5224 13.6551C83.8914 10.5431 76.1885 3.53409 70.6864 4.92187C65.1844 6.30964 63.3409 10.8585 62.8223 14.3069C62.3036 17.7554 64.9039 19.3254 66.3548 17.5031Z" fill="#FA8314"/>
<path d="M42.1051 35.5832C43.7283 38.0589 46.0763 38.9376 47.9742 39.0174C49.8722 39.0971 53.4931 36.8651 51.8014 34.4937C49.4785 32.0317 48.7905 35.1385 45.7362 32.6971C42.6819 30.2557 40.482 33.1075 42.1051 35.5832Z" fill="#FA8314"/>
<path d="M53.3203 40.5736C53.3203 41.201 53.829 41.7097 54.4564 41.7097C55.0838 41.7097 55.5925 41.201 55.5925 40.5736C55.5925 39.9462 55.0838 39.4375 54.4564 39.4375C53.829 39.4375 53.3203 39.9462 53.3203 40.5736Z" fill="#FA8314"/>
<path d="M46.7507 26.8236C46.7507 26.1962 46.2421 25.6875 45.6147 25.6875C44.9872 25.6875 44.4785 26.1962 44.4785 26.8236C44.4785 27.451 44.9872 27.9597 45.6147 27.9597C46.2421 27.9597 46.7507 27.451 46.7507 26.8236Z" fill="#FA8314"/>
<path d="M33.9707 35.3939C33.9707 36.0213 34.4794 36.53 35.1068 36.53C35.7342 36.53 36.2429 36.0213 36.2429 35.3939C36.2429 34.7665 35.7342 34.2578 35.1068 34.2578C34.4794 34.2578 33.9707 34.7665 33.9707 35.3939Z" fill="#FA8314"/>
<path d="M55.3551 19.885C55.5569 19.4867 55.3975 19.0002 54.9993 18.7984C54.601 18.5966 54.1145 18.7559 53.9127 19.1543C53.7108 19.5526 53.8701 20.039 54.2685 20.2408C54.6669 20.4426 55.1534 20.2833 55.3551 19.885Z" fill="#FA8314"/>
<path d="M62.4719 33.8398C62.6336 33.5204 62.5059 33.1304 62.1864 32.9685C61.8671 32.8067 61.477 32.9345 61.3153 33.2539C61.1534 33.5733 61.2812 33.9634 61.6005 34.1252C61.92 34.287 62.31 34.1592 62.4719 33.8398Z" fill="#FA8314"/>
</g>
<defs>
<clipPath id="clip0_763_7271">
<rect width="100" height="98.9891" fill="white"/>
</clipPath>
</defs>
</svg>
