<svg width="100" height="116" viewBox="0 0 100 116" fill="none" xmlns="http://www.w3.org/2000/svg">
<g clip-path="url(#clip0_782_7376)">
<path d="M28.4744 45.2824C27.5323 44.9962 26.553 44.8594 25.5985 44.8594C23.5655 44.8594 21.5573 45.4939 19.9086 46.6881C17.6897 48.3054 16.4252 50.7064 16.3633 53.4309C16.4005 56.1802 18.5574 59.3526 20.7019 62.1144C23.7266 61.8904 26.2926 61.4551 28.5115 60.8081C29.6024 60.3478 33.3709 58.743 34.127 58.4196C37.5236 54.8491 35.4825 47.4236 28.4744 45.2824Z" fill="#FA8314"/>
<path d="M58.1256 45.4417C56.6009 45.1556 55.1629 45.0312 53.8117 45.0312C44.4774 45.0312 39.2338 50.9653 38.6016 51.7367C37.0521 53.6028 38.1058 55.9292 38.4901 56.6382C48.1962 52.8314 58.9685 49.8333 72.0341 53.3664C72.5052 53.4908 72.9762 53.6276 73.4225 53.7644C69.7656 49.4974 64.2493 46.4743 58.1256 45.4417Z" fill="#FA8314"/>
<path d="M78.1087 77.3881C78.8525 77.1766 79.1995 75.9699 79.2987 75.5469C77.5508 75.8828 75.617 76.0694 73.5469 76.057C75.6914 76.7909 77.4517 77.5747 78.1087 77.3881Z" fill="#FA8314"/>
<path d="M53.1924 69.9515C52.5229 69.541 51.7296 68.6328 51.1718 68.6328C50.6015 68.6328 50.6388 69.3668 49.5231 70.6233C48.6926 71.5564 47.5397 72.7631 46.0273 74.1564C48.7174 73.4971 57.6798 73.3105 60.407 73.5219C58.0268 72.6138 55.6096 71.4319 53.1924 69.9515Z" fill="#FA8314"/>
<path d="M74.451 102.334C56.6501 101.376 42.6052 94.9192 33.8412 83.6605L33.68 83.4491C33.618 83.3744 33.5684 83.2998 33.5313 83.25C30.4446 85.6013 24.7175 88.0023 19.6476 90.1296C16.251 91.5603 13.0404 92.9039 11.1685 94.0111L11.0817 94.0484C10.4495 94.4465 10.0529 94.7949 9.81738 95.0188C19.1393 107.895 34.1387 115.558 49.9934 115.558C63.8771 115.558 75.4303 110.955 84.3432 101.874C81.1822 102.321 77.6368 102.682 74.451 102.334Z" fill="#FA8314"/>
<path d="M89.5996 36.2472C84.6783 31.4203 77.6992 27.8872 68.3898 29.9648C66.927 33.6471 59.0059 32.0423 56.1919 32.2787C53.3779 32.5151 52.5226 33.0251 51.1963 33.3237C49.8823 33.6347 52.1631 31.7686 54.6052 31.3332C56.6257 30.9848 59.0554 31.2212 61.3363 30.4748C64.175 29.3428 65.8238 26.8173 65.8362 26.8048C67.0509 25.0508 67.8939 23.0727 68.4269 21.5052C68.7865 20.4478 69.0839 19.4152 69.3071 18.42C73.1375 18.4821 79.1992 8.84074 67.1749 5.03394C59.1298 -2.1691 53.5391 -1.14896 46.027 4.97175C36.7671 12.5356 32.8375 25.3369 32.8375 25.3369L46.9939 27.1657C49.2377 22.5253 47.3163 18.9424 49.0765 14.8993C50.9607 10.6073 54.0721 11.4657 55.3241 13.6055C56.5886 15.7452 55.8076 18.843 54.2581 15.5462C52.6962 12.2494 49.8699 15.3347 50.44 19.4774C51.0103 23.6201 48.6178 28.7456 48.0724 29.6661C38.924 26.6556 24.0982 27.7254 17.9869 32.8634C10.8095 37.9516 5.8014 45.3537 4.47508 48.4887C3.13627 51.6112 0 59.9837 0 65.6815C0 74.8501 2.44208 83.4341 6.71878 90.8238C7.80964 90.8362 8.99964 90.6745 10.2517 90.3137H10.2641C10.2641 90.3137 10.2765 90.3013 10.3136 90.2889C11.3674 89.8286 28.4244 82.1776 46.6965 68.5552C47.998 67.5849 49.7459 65.5447 50.6136 65.5447C51.4938 65.5447 51.8532 66.4777 53.9606 67.7093C59.3529 70.8443 70.4475 75.8703 81.4057 72.1257C96.6654 66.9131 71.1417 50.3299 49.9938 54.8458C42.0355 56.7617 32.7631 62.2354 29.0814 63.4049C25.4121 64.5743 19.0282 64.6863 17.5778 64.7112C16.1398 64.736 10.921 64.3628 10.6979 63.1436C10.5491 62.3723 14.2804 62.7455 19.2017 62.5092C11.9499 57.9808 10.6732 47.9911 18.8546 43.3881C24.1478 40.6512 30.4203 42.4426 34.5729 46.3862C35.6267 47.3939 36.7051 49.3222 37.424 49.3222C38.1555 49.3222 39.6058 47.2322 41.0065 46.2991C46.2625 42.791 53.5143 42.3306 59.6008 43.2761C66.6666 44.4829 74.501 48.526 77.1166 55.3932C78.4926 55.953 79.7322 56.5626 80.8479 57.197C80.1661 55.1941 79.0752 51.7481 79.038 50.0686C79.0009 47.6054 81.3809 54.2362 82.1495 55.8286C82.6205 56.7989 83.5378 58.3914 84.1949 59.4861C90.083 64.313 90.2318 70.0606 86.1534 72.897C85.3477 73.4568 84.3683 73.9793 83.2527 74.4147C82.323 75.3602 81.5916 76.6043 81.0586 77.7239C80.29 79.3411 80.5256 79.8637 79.9057 80.2618C79.2859 80.6723 77.4513 79.5651 76.1125 79.0675C72.0094 77.5249 67.4848 76.542 65.2659 76.1066C65.2535 76.1066 65.2535 76.0942 65.241 76.1066C58.2497 76.0071 46.8203 76.1688 40.9694 77.6742C39.5809 78.7814 38.2794 79.9508 36.5191 81.145C44.3163 91.7319 62.6999 99.3704 83.7733 98.1264C85.608 98.0144 87.3186 97.6909 88.9178 97.1809L88.9302 97.1684C95.8472 88.5596 100 77.612 100 65.6815C100 53.7883 94.5209 41.0742 89.5996 36.2472ZM66.3568 40.0167C64.4106 38.8348 58.1381 36.9439 52.9689 38.6855C51.7541 39.0961 50.2045 40.5641 49.5847 40.5641C48.9526 40.5641 48.4319 39.5813 46.3369 38.8722C43.7586 38.0013 39.7546 37.541 34.6598 39.8052C28.2261 42.2187 33.7052 38.81 33.7052 38.81C33.7052 38.81 41.1305 34.2691 47.4526 37.2175C48.1716 37.5535 49.0889 38.4865 49.5476 38.4865C50.0062 38.4865 50.2913 37.9764 51.5558 37.3917C54.7416 35.9487 61.262 34.8539 67.7947 39.8798C67.7947 39.8798 68.7617 41.4971 66.3568 40.0167Z" fill="#FA8314"/>
</g>
<defs>
<clipPath id="clip0_782_7376">
<rect width="100" height="115.556" fill="white"/>
</clipPath>
</defs>
</svg>
