<?xml version="1.0" encoding="UTF-8"?>
<svg id="Layer_2" data-name="Layer 2" xmlns="http://www.w3.org/2000/svg" viewBox="0 0 1317.11 220.37">
  <defs>
    <style>
      .cls-1 {
        fill: #fa8314;
      }
    </style>
  </defs>
  <g id="Layer_1-2" data-name="Layer 1">
    <g>
      <path class="cls-1" d="M448.93,176.17v1.61h-28.56v-1.61c5.53-1.15,6.45-4.83,6.45-9.9v-46.97c0-14.51-4.14-27.86-20.95-27.86-8.29,0-15.89,5.07-20.26,11.98v63.33c0,5.53,1.15,7.83,6.68,8.98v2.08h-28.79v-2.08c5.53-1.15,6.68-3.45,6.68-8.98v-99.95c0-3.23,0-6.68-1.38-9.21-2.08-3.23-5.07-3.23-8.52-3.23v-2.08l24.87-1.84.46.69v48.36c5.3-9.67,16.35-16.35,27.41-16.35,19.8,0,29.48,12.2,29.48,31.32v51.81c0,5.07.92,8.75,6.45,9.9h0ZM354.97,92.81h-1.61c-2.99-11.29-4.83-22.11-9.9-26.95-5.3-4.83-13.82-6.45-23.95-6.68h-2.3v105.24c0,3.92.69,6.22,2.08,7.6,1.15,1.61,6.45,3.68,10.36,3.68v2.08h-41.68v-2.08c3.92,0,8.98-2.08,10.36-3.68,1.38-1.38,1.84-3.68,2.08-7.6V59.19h-2.53c-10.14.23-18.65,1.84-23.72,6.68-5.3,4.83-6.91,15.66-9.9,26.95h-1.84l1.38-38.69c.23-.23.46-.69.92-.46,1.38.46,4.14,1.38,8.29,1.38h71.62c4.14,0,6.91-.92,8.06-1.38.46-.23.92.23.92.46l1.38,38.69h0ZM1198.28,158.44c-5.76,12.2-13.82,20.95-28.1,20.95-28.56,0-41.45-23.03-41.45-48.59,0-22.8,12.2-46.97,37.54-46.97,9.44,0,17.27,2.76,22.8,8.75,5.98,5.76,8.75,13.59,8.75,23.26v4.38l-56.88,2.53h-.23c-1.84,23.49,11.29,34.77,16.81,38.46,5.53,3.92,12.44,5.3,19.11,5.3,8.52,0,15.43-2.99,20.73-8.52l.92.46h0ZM1147.61,96.95c-4.38,5.53-5.53,13.13-6.45,22.34,8.29-1.38,35.01-5.53,37.77-5.98,4.38-.69,4.83-4.38,4.14-8.52-.92-10.36-6.45-17.04-17.5-17.04-7.6,0-13.59,2.99-17.96,9.21h0ZM835.58,53.43c-8.98,0-12.2,8.06-12.2,16.35,0,15.66,10.59,17.04,23.49,17.04v4.14l-17.27.92v74.61c0,5.07,1.15,8.06,6.45,9.21v2.08h-28.56v-2.08c5.3-1.38,6.45-4.14,6.45-9.21l-.46-72.54c0-5.76-3.45-4.83-8.06-4.83v-2.99c9.44,0,8.06-3.45,8.52-10.14,1.38-15.66,8.75-27.41,25.79-27.41,6.68,0,16.35,2.76,16.35,10.82,0,4.14-2.99,6.91-7.14,6.91-5.98,0-6.45-3.45-6.45-8.29,0-3.45-3.92-4.61-6.91-4.61h0ZM936.22,175.71v2.08h-21.19l-.92-15.66c-4.61,10.36-16.35,17.27-27.63,17.27-20.04,0-27.86-13.36-27.86-32.01v-45.13c0-4.61,0-7.6-.46-9.67-.92-3.68-3.23-3.45-8.06-3.23v-2.53l23.26-2.99c.46,0,.69.23.69.69v57.34c0,14.04,2.76,29.25,19.8,29.25,9.67,0,15.89-5.07,20.26-13.36v-57.57c0-4.14-.46-7.14-1.38-8.98-.69-1.61-2.3-2.53-5.3-3.23-.92-.46-1.84-.23-2.99-.23v-2.08l24.64-1.84c.46,0,.69.23.69.69v77.37c0,4.61.46,8.06,1.38,10.14,1.15,2.08,2.76,2.99,5.07,3.68h0ZM974.44,175.71v2.08h-28.56v-2.08c2.3-.46,3.92-1.15,5.07-2.53.92-1.38,1.61-3.68,1.61-6.68v-99.95c0-2.76,0-8.06-2.76-10.36-2.3-1.61-5.3-2.08-7.14-2.08v-2.08l24.64-1.84c.46,0,.69.23.69.69v115.61c0,5.3,1.15,8.06,6.45,9.21h0ZM1274.73,86.82c7.37,0,14.51-3.45,17.96-7.6,3.23-4.38,5.98-9.67,6.45-17.5h2.08v26.48l15.89-2.08v4.83l-15.89.46v70.7c0,8.52,3.23,11.98,11.51,13.82v1.84h-33.62v-1.84c2.3-.46,3.92-1.38,5.07-2.76,1.09-1.52,1.38-4.16,1.38-7.39v-63.54c0-7.83-1.38-13.59-10.82-13.59v-1.84h0ZM1207.72,145.08c6.22,15.43,16.12,30.63,34.54,30.63,9.9,0,16.81-6.22,16.81-16.35,0-8.75-5.76-14.28-13.13-18.2-3.68-1.84-7.83-3.92-11.98-5.76-12.67-5.3-25.1-11.98-25.1-27.17s12.2-24.41,26.95-24.41c5.07,0,8.68.96,11.51,1.61,3.01.69,5.07,1.38,7.14,1.38,2.76,0,4.61-.69,5.3-2.3h1.61l3.45,28.32h-1.61c-3.68-8.29-7.6-14.74-12.2-18.88-4.38-4.38-9.44-6.45-15.2-6.45-8.98,0-15.66,4.61-15.66,14.04,0,7.6,6.68,12.2,12.89,15.2,3.92,1.84,7.83,3.68,12.2,5.53,13.82,5.76,25.1,13.59,25.1,29.71,0,17.5-11.29,27.41-28.32,27.41-6.22,0-11.29-.46-14.97-1.61-3.92-.92-7.14-1.61-9.67-1.61-2.76,0-4.83.92-6.22,2.53h-1.38l-3.68-33.62h1.61ZM1128.73,54.81v2.08c-6.22,2.3-8.98,7.37-10.59,13.59-.69,3.68-1.15,8.52-1.15,14.51v93.73h-2.3l-76.22-104.09v67.25c0,9.44.69,19.8,6.91,27.41,2.53,2.53,5.98,4.61,10.36,6.45v2.08h-35.92v-2.08c7.37-3.23,10.36-8.29,11.98-16.12.69-4.61,1.15-10.36,1.15-17.5v-74.84l-1.84-2.99c-1.15-1.38-2.08-2.76-3.23-3.68-.92-.92-2.08-1.61-2.99-2.3-1.15-.69-2.3-1.15-3.45-1.38v-2.08h23.26c.46,0,.69.23.92.46l66.09,87.74v-57.11c0-8.06-.92-17.5-6.45-23.72-2.3-2.3-5.3-4.14-9.44-5.3v-2.08h32.93-.01ZM771.33,86.13h31.55v3.23c-7.6.69-9.67,6.91-14.04,16.58-2.08,4.38-4.61,9.9-7.6,16.81l-23.49,55.96-6.68,14.51c-4.14,9.67-10.14,16.58-21.42,16.58-4.14,0-7.37-.92-9.9-2.53-2.3-1.84-3.68-3.92-3.68-6.68,0-1.84.69-3.45,2.08-4.83,1.38-1.15,2.99-1.61,5.07-1.61,1.84,0,3.68.46,4.83,1.38,1.15,1.15,2.53,2.3,3.68,3.45s2.76,1.61,4.61,1.61c2.3,0,4.14-.69,5.76-2.3,1.61-1.38,3.23-3.92,4.83-6.91l6.68-14.97-24.87-59.19c-4.14-10.14-7.37-17.27-9.9-21.42s-6.22-6.91-9.21-8.06v-1.61h34.08v1.61c-3.92.92-5.76,3.45-5.76,6.45,0,1.84.46,3.68.92,5.76.69,1.84,1.84,5.3,3.92,10.14l19.35,47.9,13.13-34.32c2.3-5.98,4.14-11.98,5.76-18.2.23-2.08.46-3.92.46-5.3,0-2.99-.92-5.53-2.53-7.37-1.61-2.08-2.76-3.68-7.6-5.07v-1.61h-.02ZM713.3,131.5c0,25.79-14.97,47.9-41.91,47.9s-41.91-22.8-41.91-47.9,14.97-47.67,41.91-47.67,41.91,22.11,41.91,47.67ZM691.65,100.41c-3.92-7.83-8.52-11.98-16.81-12.67-20.73-.92-27.17,25.1-28.32,41.91-.92,12.2-.92,21.65,4.61,33.16,3.23,6.45,9.21,12.67,16.81,12.67,20.73,0,26.71-24.64,28.32-40.99,1.15-13.13,1.38-22.34-4.61-34.08h0ZM584.11,179.63c-5.98,0-9.9-.69-14.51-2.76-10.81-4.87-14.51-15.89-14.51-19.8,0-2.53.69-4.61,1.84-5.98,1.38-1.38,4.38-2.3,6.45-2.08,4.14.46,6.45,2.53,5.76,8.29-.46,5.76-3.68,7.14,2.76,13.59,2.3,2.53,6.91,4.61,12.89,4.61,15.58,0,16.58-16.25,16.58-30.17v-76.91c0-3.68-.69-6.45-2.08-8.06-1.38-1.84-3.92-2.99-7.6-3.45v-2.08h33.85v2.08c-6.22.46-7.37,5.07-7.37,10.36v78.76c0,23.52-10.51,33.62-34.08,33.62h0ZM524.64,158.44c-5.76,12.2-13.82,20.95-28.1,20.95-28.56,0-41.45-23.03-41.45-48.59,0-22.8,12.2-46.97,37.54-46.97,9.44,0,17.27,2.76,22.8,8.75,5.98,5.76,8.75,13.59,8.75,23.26v4.38l-56.88,2.53h-.23c-1.84,23.49,11.29,34.77,16.81,38.46,5.53,3.92,12.44,5.3,19.11,5.3,8.52,0,15.43-2.99,20.73-8.52l.92.46h0ZM473.97,96.95c-4.38,5.53-5.53,13.13-6.45,22.34,8.29-1.38,35.01-5.53,37.77-5.98,4.38-.69,4.83-4.38,4.14-8.52-.92-10.36-6.45-17.04-17.5-17.04-7.6,0-13.59,2.99-17.96,9.21h0Z"/>
      <path class="cls-1" d="M219.99,120.1c-.33,16.43-5.8,32.21-13.52,46.7-14.17,26.09-40.26,43.48-69.24,50.57-31.88,7.73-67.31.33-92.76-19.97-11.59-8.7-22.87-19.97-30.28-32.21C5.49,151.02,1.62,134.92.33,118.49c-2.58-29.63,9.99-62.48,30.28-84.38C51.86,10.6,82.14,3.19,112.74.29c1.93-.33,5.48-.64,6.12.64.64,1.61-.33,3.55-1.93,6.12s-5.15,5.48-7.08,5.48c-13.21,0-19.97,2.26-32.53,6.12-24.48,7.73-44.13,24.15-56.36,46.7-13.21,23.84-17.39,51.85-7.41,78.27,9.66,25.77,29.95,48.31,56.04,57.98,27.06,9.99,56.69,9.24,83.09-2.03,25.12-10.95,43.16-28.56,53.46-53.69,5.8-14.49,6.67-29.63,4.74-44.77-1.61-10.95-4.74-22.22-10.85-31.88-13.85-22.55-42.84-30.59-67.95-33.81-26.41-3.22-53.46,7.73-73.11,24.8-19,16.43-28.02,39.94-24.15,64.73,3.55,24.15,20.93,41.87,42.84,51.21,9.66,4.19,20.62,7.08,31.56,7.41,11.27.33,24.15-2.9,34.46-7.73,20.93-9.99,38-27.7,42.51-50.88,1.61-9.34,0-18.03-2.26-26.41-3.22-11.92-9.34-23.84-21.9-29.95-12.24-5.8-26.73-6.77-40.26-6.77-12.56,0-26.09,1.29-36.72,8.37-20.29,13.21-29.31,38.97-21.26,62.16,8.05,23.51,42.51,26.09,63.13,21.26,19-4.51,29.63-19.33,30.59-38.33.33-9.99-5.15-18.68-14.49-22.87-3.86-1.61-6.77-3.55-11.59-1.61-4.51,1.29-10.95,2.58-15.14.97-4.51-1.61-8.7-1.61-11.92-.64-5.15.97-8.63,3.21-9.91,4.18-.33.33-1.03,1.29-.39,1.94,2.58,2.9,1.29,9.34.97,14.17-.64,4.83-2.26,10.3-2.9,12.24-.97,2.58-1.75,2.37.51,4.62,4.51,3.22,5.29,1.82,10.45-.11,4.51-1.61,9.34-2.9,13.85-1.93,5.8,1.29,9.02,5.15,13.52-1.29.33-.64.64-1.61-.33-2.58-.64-.97-1.29-1.93-1.29-2.26-1.29-2.26-1.93-5.48-.64-7.73.64-1.29,1.61-3.86,3.22-4.51,2.58-.64,4.51,5.15,4.83,6.77.64,4.51,1.93,10.95,1.29,15.78-.64,4.19-2.58,9.34-8.7,9.99-2.26.33-4.83-.97-7.08-1.61-3.22-1.29-6.77-1.61-9.99-.64-4.51.97-9.99,3.22-14.81,2.58-5.15-.97-9.34-5.8-11.59-9.99-2.26-4.83-1.29-9.99.33-15.14,1.29-2.9,2.58-5.48,2.9-8.7.64-2.9-.33-4.83-1.29-7.73-1.61-4.83-1.29-9.66,3.22-12.88,5.48-4.19,11.92-5.8,18.68-5.48,6.44.33,11.59,1.93,17.71,0,9.66-2.9,18.68.97,25.44,7.73,8.7,9.02,11.92,22.22,11.27,34.46-.64,9.66-3.22,19.33-9.02,27.06-7.08,9.66-18.03,14.49-29.63,16.1-14.17,1.93-30.59,1.29-43.8-4.83-11.59-5.15-19.65-14.49-23.84-26.41-3.86-11.92-4.83-27.06-1.61-39.29,3.22-12.88,11.92-24.8,22.22-32.85,11.27-8.7,25.44-11.92,39.62-11.92,16.1,0,32.53,1.29,46.7,9.34,22.55,12.56,30.92,40.58,28.99,64.73-2.26,27.06-20.29,48.63-44.13,60.55-11.92,6.12-26.09,10.3-39.62,9.66-12.56-.64-25.44-4.51-36.72-10.3-18.03-9.02-31.88-23.51-39.62-40.91-3.22-7.41-4.83-16.1-5.8-24.48-3.22-28.66,7.41-55.4,30.59-73.43,11.59-8.7,24.15-14.17,38.33-17.71,17.07-4.51,31.88-5.48,47.66-1.93,14.49,3.22,29.63,7.73,42.19,16.43,11.27,7.73,19,19.33,24.48,31.88,6.12,14.17,9.66,29.95,9.34,45.41h-.02Z"/>
    </g>
  </g>
</svg>