<svg width="88" height="86" viewBox="0 0 88 86" fill="none" xmlns="http://www.w3.org/2000/svg">
<path d="M86.0971 28.4374C90.8794 15.671 85.1923 0.331639 68.9176 0.331639C52.6429 0.331639 46.2643 16.0912 43.6889 15.8808C41.1135 15.6705 41.1023 0.109375 22.5384 0.109375C3.97456 0.109375 -6.59222 19.2046 11.1225 32.5808C30.8609 47.8856 29.255 55.8032 34.0648 57.5735C38.8746 59.3438 80.3962 39.841 86.0971 28.4374Z" fill="#FA8314"/>
<path d="M86.6218 61.6652C86.6218 50.6931 81.3034 36.9446 70.183 44.4495C58.016 53.2298 62.9918 61.2819 61.425 61.1539C59.8581 61.026 53.4939 53.8562 46.1791 56.4262C38.8644 58.9963 34.6108 66.2786 45.3884 74.4166C57.3971 83.728 69.2376 85.6864 78.3316 85.6864C87.4256 85.6864 86.6218 72.6373 86.6218 61.6652Z" fill="#FA8314"/>
<path d="M1.70629 50.7463C1.70629 39.9779 4.76296 33.1043 14.5489 39.6259C24.3348 46.1476 16.1716 61.6367 17.6277 62.2295C19.0837 62.8223 20.1582 57.072 27.5968 57.5912C35.0354 58.1105 47.2567 80.8949 34.3625 83.119C21.4682 85.3431 5.35605 87.9131 2.29176 83.7121C-0.772524 79.5111 1.67118 58.5028 1.70629 50.7463Z" fill="#FA8314"/>
<path d="M56.8576 36.0502C59.8745 33.0948 58.1663 29.2934 54.299 32.2582C48.7239 36.5326 37.5889 37.9448 33.7824 29.6764C31.8749 25.533 27.7169 27.8627 29.3396 31.4118C32.9376 43.1786 48.6217 45.7752 56.8576 36.0502Z" fill="white"/>
<path d="M49.8917 27.4905C51.3259 27.4905 52.4885 26.3278 52.4885 24.8937C52.4885 23.4595 51.3259 22.2969 49.8917 22.2969C48.4575 22.2969 47.2949 23.4595 47.2949 24.8937C47.2949 26.3278 48.4575 27.4905 49.8917 27.4905Z" fill="white"/>
<path d="M40.4894 26.1233C41.9235 26.1233 43.0862 24.9607 43.0862 23.5265C43.0862 22.0923 41.9235 20.9297 40.4894 20.9297C39.0552 20.9297 37.8926 22.0923 37.8926 23.5265C37.8926 24.9607 39.0552 26.1233 40.4894 26.1233Z" fill="white"/>
</svg>
