<svg width="79" height="82" viewBox="0 0 79 82" fill="none" xmlns="http://www.w3.org/2000/svg">
<g clip-path="url(#clip0_697_7244)">
<path d="M38.5748 24.0067C38.6039 23.8014 38.7273 23.6328 38.945 23.6328C39.1265 23.6328 39.3442 23.8014 39.3152 24.0067C39.279 24.3072 39.1773 24.6004 39.0248 24.8717C38.4006 25.9859 36.956 26.2791 35.8382 25.788C35.1775 25.4948 34.6258 24.8277 34.4734 24.102C34.3791 23.6328 35.0905 23.4349 35.1921 23.904C35.1993 23.97 35.2211 24.0287 35.2429 24.0946C35.2502 24.124 35.2647 24.146 35.272 24.1753L35.2793 24.1826C35.2841 24.1924 35.2865 24.1997 35.2865 24.2046C35.2865 24.2119 35.2938 24.2119 35.2938 24.2193C35.33 24.2999 35.3735 24.3805 35.4171 24.4538C35.5188 24.6225 35.5768 24.6957 35.7438 24.8424C35.8599 24.9523 36.0559 25.0769 36.2301 25.1429C36.702 25.3189 37.2973 25.3189 37.7327 25.1136C38.0957 24.9377 38.2771 24.7104 38.4514 24.3586L38.4586 24.3512C38.4586 24.3512 38.4659 24.3439 38.4732 24.3292V24.3219L38.4804 24.3145C38.4804 24.2852 38.495 24.2559 38.5095 24.2266C38.524 24.1753 38.5386 24.1166 38.5531 24.0653C38.5676 24.014 38.6039 23.7868 38.5748 24.0067Z" fill="#FA8314" stroke="white" stroke-width="0.75" stroke-miterlimit="10"/>
<path d="M41.0133 32.0837C40.2656 32.0837 39.6631 31.6512 39.6631 31.1161C39.6631 30.581 40.2656 30.1484 41.0133 30.1484C41.761 30.1484 42.3635 30.581 42.3635 31.1161C42.3635 31.6512 41.761 32.0837 41.0133 32.0837Z" fill="#FA8314" stroke="white" stroke-width="0.75" stroke-miterlimit="10"/>
<path d="M44.4692 24.1826V24.1899C44.4764 24.1973 44.4764 24.2119 44.4837 24.2193C44.5273 24.2999 44.5636 24.3805 44.6143 24.4538C44.7161 24.6225 44.7668 24.6957 44.9338 24.8424C45.0499 24.9523 45.2459 25.0769 45.4274 25.1429C45.8919 25.3189 46.4872 25.3189 46.93 25.1136C47.2857 24.9377 47.4744 24.7104 47.6486 24.3586L47.6559 24.3512V24.3439L47.6632 24.3365V24.3219L47.6704 24.3145C47.6777 24.2852 47.6921 24.2559 47.6994 24.2266C47.7212 24.1753 47.7357 24.1166 47.7503 24.0653C47.7575 24.036 47.7721 23.948 47.7793 23.9187C47.7793 23.926 47.7793 23.948 47.7721 24.0067C47.7939 23.8014 47.9172 23.6328 48.1423 23.6328C48.3165 23.6328 48.5343 23.8014 48.5052 24.0067C48.4689 24.3072 48.3674 24.6004 48.2149 24.8717C47.5906 25.9859 46.1461 26.2791 45.0281 25.788C44.3749 25.4948 43.8159 24.8277 43.6707 24.102C43.5763 23.6328 44.2877 23.4349 44.3821 23.904C44.3966 23.97 44.4184 24.0287 44.4401 24.0946C44.4474 24.124 44.4619 24.1533 44.4692 24.1826Z" fill="#FA8314" stroke="white" stroke-width="0.75" stroke-miterlimit="10"/>
<path d="M39.3152 24.0067C39.279 24.3073 39.1773 24.6004 39.0248 24.8717C38.4006 25.9859 36.956 26.2791 35.8382 25.788C35.1775 25.4948 34.6258 24.8277 34.4734 24.102C34.3791 23.6328 35.0905 23.4349 35.1921 23.904C35.1993 23.97 35.2211 24.0287 35.2429 24.0946C35.2502 24.124 35.2647 24.146 35.272 24.1753L35.2793 24.1826C35.2841 24.1924 35.2865 24.1997 35.2865 24.2046C35.2865 24.212 35.2938 24.212 35.2938 24.2193C35.33 24.2999 35.3735 24.3805 35.4171 24.4538C35.5188 24.6225 35.5768 24.6958 35.7438 24.8424C35.8599 24.9523 36.0559 25.0769 36.2301 25.1429C36.702 25.3189 37.2973 25.3189 37.7327 25.1136C38.0957 24.9377 38.2771 24.7104 38.4514 24.3586L38.4586 24.3512C38.4586 24.3512 38.4659 24.3439 38.4732 24.3292V24.3219L38.4804 24.3145C38.4804 24.2852 38.495 24.2559 38.5095 24.2266C38.524 24.1753 38.5386 24.1167 38.5531 24.0653C38.5676 24.014 38.6039 23.7868 38.5748 24.0067C38.6039 23.8014 38.7273 23.6328 38.945 23.6328C39.1265 23.6328 39.3442 23.8014 39.3152 24.0067Z" fill="white" stroke="white" stroke-width="0.75" stroke-miterlimit="10"/>
<path d="M42.3635 31.1161C42.3635 31.6512 41.761 32.0837 41.0133 32.0837C40.2656 32.0837 39.6631 31.6512 39.6631 31.1161C39.6631 30.581 40.2656 30.1484 41.0133 30.1484C41.761 30.1484 42.3635 30.581 42.3635 31.1161Z" fill="white" stroke="white" stroke-width="0.75" stroke-miterlimit="10"/>
<path d="M48.5052 24.0067C48.4689 24.3072 48.3674 24.6004 48.2149 24.8717C47.5906 25.9859 46.1461 26.2791 45.0281 25.788C44.3749 25.4948 43.8159 24.8277 43.6707 24.102C43.5763 23.6328 44.2877 23.4349 44.3821 23.904C44.3966 23.97 44.4184 24.0287 44.4401 24.0946C44.4474 24.124 44.4619 24.1533 44.4692 24.1826V24.1899C44.4765 24.1973 44.4765 24.2119 44.4837 24.2193C44.5273 24.2999 44.5636 24.3805 44.6143 24.4538C44.7161 24.6225 44.7668 24.6957 44.9338 24.8424C45.0499 24.9523 45.2459 25.0769 45.4274 25.1429C45.8919 25.3189 46.4872 25.3189 46.93 25.1136C47.2857 24.9377 47.4744 24.7104 47.6486 24.3586L47.6559 24.3512V24.3439L47.6632 24.3366V24.3219L47.6704 24.3145C47.6777 24.2852 47.6921 24.2559 47.6994 24.2266C47.7212 24.1753 47.7357 24.1166 47.7503 24.0653C47.7575 24.036 47.7721 23.948 47.7793 23.9187C47.7793 23.926 47.7793 23.948 47.7721 24.0067C47.7939 23.8014 47.9172 23.6328 48.1423 23.6328C48.3165 23.6328 48.5343 23.8014 48.5052 24.0067Z" fill="white" stroke="white" stroke-width="0.75" stroke-miterlimit="10"/>
<path d="M29.0138 57.7194C29.0138 58.3514 21.3521 60.8422 20.7386 60.8422C20.1251 60.8422 18.9995 56.8171 18.3367 54.5225C17.2842 50.8783 15.9399 42.4453 16.547 42.4453C17.154 42.4453 19.9351 49.9186 23.2714 52.9587C26.6076 55.9988 29.0138 57.0874 29.0138 57.7194Z" fill="#FA8314"/>
<path d="M52.9911 31.4531C52.9765 32.2155 52.875 33.513 52.4466 35.199C51.7789 37.7646 50.1963 41.7744 46.3854 46.3339C45.2965 47.6314 43.0896 50.2338 42.2477 50.2338C41.4057 50.2338 30.8624 45.3002 29.8203 31.4751C31.998 35.9027 36.4333 38.7103 41.3984 38.7103C46.3491 38.7103 50.8133 35.888 52.9911 31.4531Z" fill="#FA8314"/>
<path d="M61.702 47.7891C62.3125 47.7891 60.0687 64.7371 57.0636 69.8904C53.4776 76.0407 47.7938 79.2807 39.6709 79.7865C39.6274 79.7939 35.301 80.6149 30.5391 77.1695C31.0254 76.3485 33.7402 72.1189 39.17 69.348L39.6854 69.0914C43.8375 66.9724 50.9316 63.3509 56.1374 57.5046C58.5675 54.7754 61.0914 47.7891 61.702 47.7891Z" fill="#FA8314"/>
<path d="M61.6143 42.1056C61.3158 44.2702 57.3895 55.1611 47.0453 61.8538C44.8313 63.2833 39.2241 66.3356 37.3949 67.4719C30.4044 71.8261 30.1146 74.2782 28.684 74.5295C27.2534 74.7809 20.8909 64.339 21.6097 63.6131C22.3285 62.8873 25.411 63.2276 29.2296 61.8925C33.9984 60.2251 40.3042 56.965 46.4355 50.5942C57.6943 38.9022 54.6455 29.0647 54.1738 27.7599L54.1955 27.6279C55.7053 26.9535 56.4458 24.5418 55.8142 22.2767C55.582 21.4557 55.2408 20.9865 54.7907 20.8839C54.3552 20.7813 53.9487 21.0452 53.6293 21.3457C52.5042 18.113 50.1377 15.4081 47.0817 13.8907C47.0817 13.8907 42.6451 12.558 40.0019 15.8845C39.109 17.182 38.4724 18.7507 39.0968 19.6157C39.8589 20.6566 40.9188 20.7006 41.6591 20.3928C42.2326 20.1582 42.6011 19.4981 42.1312 19.0829C41.6613 18.6677 40.7501 19.4529 40.3256 19.1267C39.9011 18.8004 39.9872 18.0893 40.3396 17.6889C40.6921 17.2885 41.504 17.106 42.3024 17.5605C42.9195 17.905 43.5814 18.868 43.2766 19.7843C42.6158 21.5594 41.1003 21.6903 39.8662 21.397C38.6176 21.1038 37.0078 19.8723 37.378 17.336C38.0102 13.3971 40.9985 12.5492 40.9985 12.5492L40.1638 12.6298C35.0389 13.121 30.6326 16.7275 29.072 21.6536C28.7816 21.3091 28.2299 20.774 27.6638 20.8693C27.1919 20.9499 26.8289 21.419 26.5895 22.2767C26.1611 23.8307 26.3571 25.4948 27.1048 26.631C27.5404 27.2907 28.6213 27.8108 28.6503 27.8108C28.6503 27.8108 27.4971 31.52 28.3042 36.3044C31.3803 49.1117 40.0694 51.2337 40.0694 51.7965C40.0694 52.3592 34.6324 55.1245 31.2933 56.6858C28.0413 54.4207 19.6846 47.9993 16.9697 36.2265C17.3835 20.1875 25.0214 3.672 39.5613 2.91698C48.0543 2.47713 59.3318 9.86373 61.2483 24.8252C62.1557 31.9357 61.9127 39.941 61.6143 42.1056Z" fill="#FA8314"/>
<path d="M21.3049 63.2656L21.2686 63.273L21.3194 63.4489H21.3629C21.3411 63.3903 21.3194 63.3316 21.3049 63.2656Z" fill="white"/>
<path d="M31.3807 1.48077C31.3807 1.77396 30.9888 2.03056 30.2846 2.49971C28.1287 3.91448 19.4503 8.5391 16.226 20.5986C13.5418 31.1178 11.9992 40.1123 13.8793 51.8483C15.5634 62.3382 20.7028 72.1641 23.8024 75.3278C26.902 78.4914 28.4699 79.7994 28.4699 80.6497C28.4699 81.5 25.2033 81.4854 20.7173 81.478C19.1349 81.478 17.3346 81.4707 15.3093 81.5C8.73263 81.5 4.86351 80.4811 2.7512 78.1867C0 75.1958 0.377484 70.0352 0.900112 62.8953C1.14698 59.4427 1.43001 55.5355 1.43001 51.1373C1.63328 44.965 1.16878 36.5863 0.725902 28.4788C0.348419 21.7861 0 15.4673 0 10.3506C0 7.54307 0.71137 5.47588 2.17044 4.02443C4.51509 1.70068 8.47131 1.3708 12.3403 1.3708C13.1098 1.3708 13.8793 1.38548 14.6269 1.40015C16.1586 1.42212 17.5959 1.44413 18.888 1.36346C20.1365 1.28284 21.3488 1.18754 22.4957 1.09957C26.7858 0.769696 30.4879 0.491131 31.2501 1.20221C31.3372 1.28284 31.3807 1.3708 31.3807 1.48077Z" fill="#FA8314"/>
<path d="M78.1216 58.3138C78.8838 66.2747 79.7477 75.2985 76.1109 79.3375C74.8042 80.7963 73.0258 81.5 70.6811 81.5H69.9769C61.2734 81.5 51.5535 81.4854 51.2124 80.1146C51.1833 79.9826 51.2487 79.6014 52.5263 78.9124C55.263 77.4389 64.2205 71.6918 64.5327 59.6626C64.5907 57.3462 64.7142 54.8465 64.8521 52.2075C65.3893 41.703 66.0643 28.6328 62.522 18.3848C58.5077 5.47587 51.5753 3.1741 48.6136 2.18451C47.8152 1.92057 47.1836 1.71535 47.1836 1.48077C47.1836 1.37813 47.2199 1.29751 47.2998 1.22417C49.0434 -0.444957 58.936 1.28283 60.112 1.36345C61.3968 1.44412 62.8414 1.42211 64.373 1.40014C68.8954 1.31947 74.0129 1.23151 76.8295 4.02441C78.2886 5.47587 78.9999 7.54307 78.9999 10.3506C78.9999 15.4673 78.6515 21.7861 78.274 28.4788C77.8312 36.5863 77.3667 44.965 77.5699 51.1373C77.6352 53.2924 77.8748 55.7335 78.1216 58.3138Z" fill="#FA8314"/>
<path d="M42.3635 31.1161C42.3635 31.6512 41.761 32.0837 41.0133 32.0837C40.2656 32.0837 39.6631 31.6512 39.6631 31.1161C39.6631 30.581 40.2656 30.1484 41.0133 30.1484C41.761 30.1484 42.3635 30.581 42.3635 31.1161Z" fill="#FA8314"/>
<path d="M48.5052 24.0067C48.4689 24.3072 48.3674 24.6004 48.2149 24.8717C47.5906 25.9859 46.1461 26.2791 45.0281 25.788C44.3749 25.4948 43.8159 24.8277 43.6707 24.102C43.5763 23.6328 44.2877 23.4349 44.3821 23.904C44.3966 23.97 44.4184 24.0287 44.4401 24.0946C44.4474 24.124 44.4619 24.1533 44.4692 24.1826V24.1899C44.4765 24.1973 44.4765 24.2119 44.4837 24.2193C44.5273 24.2999 44.5636 24.3805 44.6143 24.4538C44.7161 24.6225 44.7668 24.6957 44.9338 24.8424C45.0499 24.9523 45.2459 25.0769 45.4274 25.1429C45.8919 25.3189 46.4872 25.3189 46.93 25.1136C47.2857 24.9377 47.4744 24.7104 47.6486 24.3586L47.6559 24.3512V24.3439L47.6632 24.3366V24.3292C47.6704 24.3219 47.6704 24.3145 47.6704 24.3145C47.6777 24.2852 47.6921 24.2559 47.6994 24.2266C47.7212 24.1753 47.7357 24.1166 47.7503 24.0653C47.7575 24.036 47.7721 23.948 47.7793 23.9187C47.7793 23.926 47.7793 23.948 47.7721 24.0067C47.7939 23.8014 47.9172 23.6328 48.1423 23.6328C48.3165 23.6328 48.5343 23.8014 48.5052 24.0067Z" fill="#FA8314"/>
<path d="M39.3152 24.0067C39.279 24.3073 39.1773 24.6004 39.0248 24.8717C38.4006 25.9859 36.956 26.2791 35.8382 25.788C35.1775 25.4948 34.6258 24.8277 34.4734 24.102C34.3791 23.6328 35.0905 23.4349 35.1921 23.904C35.1993 23.97 35.2211 24.0287 35.2429 24.0946C35.2502 24.124 35.2647 24.146 35.272 24.1753L35.2793 24.1826C35.2841 24.1924 35.2865 24.1997 35.2865 24.2046C35.2865 24.212 35.2938 24.212 35.2938 24.2193C35.33 24.2999 35.3735 24.3805 35.4171 24.4538C35.5188 24.6225 35.5768 24.6958 35.7438 24.8424C35.8599 24.9523 36.0559 25.0769 36.2301 25.1429C36.702 25.3189 37.2973 25.3189 37.7327 25.1136C38.0957 24.9377 38.2771 24.7104 38.4514 24.3586L38.4586 24.3512C38.4586 24.3512 38.4659 24.3439 38.4732 24.3292V24.3219L38.4804 24.3145C38.4804 24.2852 38.495 24.2559 38.5095 24.2266C38.524 24.1753 38.5386 24.1167 38.5531 24.0653C38.5676 24.014 38.6039 23.7868 38.5748 24.0067C38.6039 23.8014 38.7273 23.6328 38.945 23.6328C39.1265 23.6328 39.3442 23.8014 39.3152 24.0067Z" fill="#FA8314"/>
</g>
<defs>
<clipPath id="clip0_697_7244">
<rect width="79" height="81" fill="white" transform="translate(0 0.5)"/>
</clipPath>
</defs>
</svg>
