<svg width="79" height="80" viewBox="0 0 79 80" fill="none" xmlns="http://www.w3.org/2000/svg">
<path d="M45.9665 61.5138C40.091 61.5138 32.7836 61.9177 28.8176 61.3118C24.8518 60.7059 16.259 59.7488 14.6068 63.1639C12.9543 66.579 18.4623 68.0661 23.8053 68.0661C29.1484 68.0661 40.385 67.3501 45.177 67.956C49.9691 68.5618 62.2706 68.0845 62.2706 68.0845C62.2706 68.0845 78.0737 68.9477 78.0737 65.1468C78.0737 61.3458 79.2959 58.2935 75.4767 55.7965C71.6578 53.2994 53.8981 53.1023 47.876 52.5148C41.8538 51.9273 21.8773 51.0459 16.1489 52.5148C10.4205 53.9836 0.853516 53.1626 0.853516 64.9999C0.853516 76.8372 9.97989 77.3382 19.9679 77.3382C29.9559 77.3382 39.9441 77.3382 45.5258 77.9257C51.1074 78.5132 78.0737 81.2015 78.0737 76.1631C78.0737 71.1247 71.7447 69.9792 63.7395 70.0526C55.7343 70.1261 45.4523 70.4933 40.3114 70.1261C35.1703 69.7589 20.0414 70.8605 16.4427 69.4651C9.97989 67.0175 11.6689 61.6216 15.8552 59.9324C20.0414 58.2432 29.5888 59.8589 36.4189 59.8589C43.2491 59.8589 65.6091 58.8308 66.4171 60.0058C67.2248 61.1809 51.8418 61.5138 45.9665 61.5138Z" fill="#FA8314"/>
<path d="M17.8775 50.7733C29.849 48.0775 53.5968 50.0883 57.7943 50.4305C61.9923 50.7727 77.8867 56.1298 77.8867 52.8474C77.8867 49.5651 68.7494 49.6227 66.262 46.5132C63.7743 43.4038 56.1236 43.4674 51.4594 43.1564C46.7953 42.8455 40.421 40.8243 29.849 41.4463C19.277 42.0682 9.8044 46.8246 6.18951 47.6178C2.57438 48.411 0.540989 50.2722 0.767049 52.1801C0.992877 54.088 17.8775 50.7733 17.8775 50.7733Z" fill="#FA8314"/>
<path d="M71.7644 31.7683C75.1954 29.8508 78.0745 18.9042 78.0745 9.88141C78.0745 0.858642 77.8637 2.42796 68.715 3.95277C64.1406 4.71517 58.8093 0.837145 53.8054 0.837145C48.8016 0.837145 46.987 0.618869 46.7963 6.05088C46.4152 16.9149 48.1649 26.8036 51.9426 30.2551C55.7201 33.7066 68.3339 33.6859 71.7644 31.7683Z" fill="#FA8314"/>
<path d="M62.1741 35.1012C53.3122 33.9611 43.5304 33.083 34.9018 33.7488C26.273 34.4146 20.9094 35.1819 15.5457 33.7488C10.1818 32.3157 0.853516 32.6368 0.853516 36.9799C0.853516 41.323 6.68359 37.9496 15.7788 39.5821C24.874 41.2145 28.1408 38.2505 41.7449 38.2505C55.3489 38.2505 65.8408 43.2668 71.632 44.0442C77.4232 44.8215 77.8868 39.9526 77.8868 36.2543C77.8868 32.556 71.036 36.2414 62.1741 35.1012Z" fill="#FA8314"/>
<path d="M21.237 31.7748C24.08 34.0196 41.4372 32.4106 44.2202 30.4105C45.7708 29.3281 44.2202 16.6611 43.5193 12.9392C42.8184 9.21733 40.5751 8.63507 35.3878 8.83677C35.032 8.8506 34.6811 8.8568 34.3334 8.85891C34.3327 6.11839 34.3917 3.28816 34.3229 2.28804C34.1891 0.350513 30.381 0.7514 29.1785 1.15228C27.976 1.5531 28.4436 4.89362 28.6399 8.16731C28.6507 8.34769 28.6598 8.52743 28.6685 8.70664C26.1703 8.68573 23.7485 8.92187 21.1768 10.2047C17.8072 11.6724 19.8729 18.3069 20.0598 23.1681C20.2468 28.0294 18.3942 29.5299 21.237 31.7748Z" fill="#FA8314"/>
<path d="M1.83597 31.872C2.7264 33.0963 5.85942 31.2266 8.12942 31.2266C10.3994 31.2266 14.4695 33.1084 16.3663 31.0963C18.2631 29.0842 15.2953 23.525 15.2953 15.5715C14.9537 12.2242 12.8334 11.7041 10.3465 11.6542L10.3994 11.623C10.0068 10.3855 10.2596 2.85965 10.1628 1.45572C10.0658 0.0517827 7.30646 0.527573 6.435 0.818052C5.56378 1.10854 5.90253 4.48525 6.04496 6.85738C6.17474 9.02348 6.06862 11.1052 6.04894 11.4543C4.87506 11.506 3.72553 11.8394 2.51135 12.9573C0.766092 14.3604 0.758131 20.7031 0.854883 25.3506C0.951634 29.9982 0.945545 30.6477 1.83597 31.872Z" fill="#FA8314"/>
</svg>
