<svg width="88" height="87" viewBox="0 0 88 87" fill="none" xmlns="http://www.w3.org/2000/svg">
<path d="M1.42189 61.2726C1.42189 71.7487 2.65176 82.2248 30.8038 82.2248C5.65899 88.97 85.2673 87.309 59.0277 82.2001C89.69 82.2001 87.062 76.1461 87.062 62.1621C87.062 54.058 64.8635 63.5766 47.6004 61.8656C30.3372 60.1546 1.42189 48.6657 1.42189 61.2726Z" fill="#FA8314"/>
<path d="M47.9424 56.8255C43.5587 57.2599 36.7497 57.898 28.1402 54.156C26.2938 53.0896 22.5449 51.9906 22.2039 50.3925C21.8629 48.7944 31.9278 50.7891 34.643 51.964C37.3681 53.1489 41.9494 53.8141 44.0622 53.8141C46.1753 53.8141 47.597 52.056 42.048 52.1053C36.4894 52.1547 33.7592 49.3222 28.4472 48.157C24.6362 47.3178 22.4263 49.1641 21.724 48.7955C21.0216 48.427 22.3211 46.5727 26.537 44.0845C31.2269 41.33 32.0563 35.442 31.0196 35.4321C29.9927 35.4321 31.0097 40.1845 24.9769 43.5119C20.3266 46.0592 19.9062 47.8456 18.9335 48.2795C17.9608 48.7135 15.1036 48.0141 11.0458 45.2989C6.17803 42.0408 5.07234 36.3537 4.15419 36.6696C3.23579 36.9954 5.44766 43.502 10.3547 46.2666C15.2716 49.0311 18.469 49.3368 18.3946 50.265C18.3202 51.1933 11.1147 50.4134 8.84404 50.6207C4.93422 50.9761 1.02441 55.7253 1.02441 38.131C1.02441 29.0474 8.84404 35.3664 11.9244 39.8686C13.2475 33.8656 16.2589 44.8941 17.9769 44.7362C20.9389 44.4597 22.3705 32.4735 24.2463 37.2818C26.4876 33.9249 28.8376 31.0024 32.2043 32.4932C36.3807 34.3396 36.1635 37.6471 35.6896 40.4807C38.306 40.6684 31.3059 45.299 31.7798 46.2271C32.3918 47.3921 42.285 45.9012 40.2216 48.0734C43.9634 48.6658 47.9031 49.7518 48.9102 53.1879C48.9102 53.1879 52.3263 56.4008 47.9424 56.8255Z" fill="#FA8314"/>
<path d="M48.6032 15.8377C48.6032 15.8377 46.7805 18.268 46.443 20.8332C46.1054 23.3985 42.7301 23.3985 41.2449 19.8206C39.7598 16.2427 38.9083 10.8546 43.3445 6.37986C47.7807 1.90512 59.1343 4.159 58.6617 8.47944C58.1892 12.7999 51.7085 10.3021 48.6032 15.8377Z" fill="#FA8314"/>
<path d="M47.8857 16.2131C47.885 15.0284 49.3159 12.7199 51.8389 12.201C54.3619 11.682 58.0066 13.6734 59.3207 15.4505C60.6347 17.2276 60.9764 22.7316 55.983 23.3734C50.9896 24.0151 47.8865 17.3979 47.8857 16.2131Z" fill="#FA8314"/>
<path d="M1.76519 28.4961C1.76519 28.4961 5.75032 25.2639 6.25994 22.9669C6.76955 20.6699 7.52317 18.4984 8.4446 17.4477C9.36603 16.3969 11.6411 17.5284 12.0748 18.6988C12.5085 19.8692 10.2751 20.9116 11.031 22.3711C11.7869 23.8306 13.6608 22.8688 14.7262 21.8558C15.7916 20.8428 17.1483 23.5143 16.621 24.8221C16.0937 26.1299 14.0254 26.3247 11.3365 29.189C8.64768 32.0533 7.68794 34.5466 5.48641 32.616C3.28489 30.6854 0.42645 30.6394 1.76519 28.4961Z" fill="#FA8314"/>
<path d="M33.9198 17.5846C36.1188 10.1795 32.7191 9.58444 29.1069 9.61634C29.1069 9.61634 28.4693 0.702501 23.8692 0.702501C19.2688 0.702501 18.4507 3.80486 16.8464 3.80486C15.2421 3.80486 14.2964 0.702501 10.8118 0.702501C0.149688 -0.593788 -1.24692 4.59105 2.93901 8.91523C7.11456 13.2393 3.21524 15.7253 8.69731 15.5129C14.1903 15.3005 13.8715 18.1477 14.3921 19.5713C14.902 21.0056 18.0149 20.1875 18.5145 22.1318C19.0244 24.0761 18.3443 26.764 21.6167 27.7734C24.7083 28.7402 24.8994 26.4348 26.4083 26.0841V26.0734C26.727 25.8185 26.8225 25.4147 26.2171 24.6816C26.0788 24.5117 25.7494 24.3205 25.6859 24.1399C25.6221 23.9486 25.7707 23.6617 25.7707 23.4174C25.7601 21.1969 23.6139 21.1013 23.6139 21.1013C23.2848 18.7745 21.5316 18.647 20.7879 18.6364C20.0443 18.6151 21.2979 17.2021 22.7429 18.169C24.1664 19.1357 24.177 20.4001 24.177 20.4425C24.177 20.4425 25.3777 20.3788 26.015 21.4519C26.642 22.5356 26.0788 23.3642 26.27 23.7999C26.4721 24.2248 26.6313 23.9273 27.1732 24.9472C27.4601 25.489 27.237 25.861 26.9608 26.0415C28.7349 26.2116 31.2849 28.9739 34.079 25.7866C37.9039 20.7825 33.9198 17.5846 33.9198 17.5846ZM16.7188 10.222C16.2194 9.68015 15.9219 9.37201 14.9871 9.21261C14.764 9.18084 14.4027 9.40391 14.2328 9.30819C14.0627 9.21261 13.9778 8.89396 13.8183 8.7133C12.3523 7.04533 10.6736 8.38401 10.6736 8.38401C8.89938 6.85403 7.49689 7.90584 6.92314 8.38401C6.34938 8.86205 6.32811 6.89644 8.06002 6.67338C9.78103 6.45031 10.6204 7.4383 10.6204 7.4383C10.6204 7.4383 11.4917 6.59906 12.6815 6.99216C13.8609 7.38525 13.9885 8.38401 14.4134 8.58581C14.8489 8.77697 14.7747 8.44768 15.8478 8.86205C16.9312 9.27629 17.2181 10.7532 16.7188 10.222ZM29.1175 16.4053C28.8836 16.4053 29.2555 15.4278 29.2874 15.1835C29.5105 12.9737 27.3963 13.165 27.3963 13.165C27.3221 10.8169 25.6008 10.4982 24.8572 10.3919C24.1239 10.2963 25.5583 8.947 26.8863 10.0731C28.225 11.1994 28.0657 12.4849 28.0657 12.4849C28.0657 12.4849 29.2662 12.5487 29.7761 13.6962C30.2861 14.8329 29.3619 16.4053 29.1175 16.4053Z" fill="#FA8314"/>
<path d="M55.475 57.7802C52.6545 55.8411 54.4752 50.4477 46.5488 44.9765C38.6224 39.5054 41.644 28.647 46.3462 32.2621C51.0485 35.8772 55.1221 49.5319 56.304 49.1379C57.4859 48.744 49.707 31.62 50.6816 29.4816C51.1275 28.5033 51.088 27.9375 53.9981 28.0693C58.4297 28.0693 59.503 23.375 62.5662 23.375C68.2129 23.375 68.2309 30.6721 70.621 34.2202C70.7929 34.4756 61.7808 49.0805 62.6647 50.4757C63.5486 51.871 71.6954 37.0213 72.4984 36.2265C73.3015 35.4316 74.5209 36.532 73.7139 38.097C76.4463 35.1425 80.1972 38.6809 83.6594 37.5638C87.1215 36.4466 88.7165 39.2479 85.9549 42.7954C83.1933 46.3429 68.8875 48.3546 67.0668 56.7297C66.4414 60.1402 58.2955 59.7193 55.475 57.7802Z" fill="#FA8314"/>
<path d="M69.1566 58.4108C67.3325 59.2661 68.3269 54.709 71.977 53.523C75.6271 52.3369 77.7805 47.7831 79.4937 49.9498C80.8224 48.2159 85.9105 44.375 86.0853 47.4974C86.2601 50.6198 82.4936 54.5722 79.4047 55.5147C76.3158 56.4573 70.9807 57.5554 69.1566 58.4108Z" fill="#FA8314"/>
<path d="M75.1551 11.2691C72.1465 11.2691 67.6884 8.80265 65.3729 12.0734C61.5469 16.9272 69.5522 30.5659 78.6284 24.317C86.9712 25.807 87.3579 18.3059 87.3579 10.2265C87.3579 5.86891 84.586 4.66065 80.7382 7.02599C76.8904 9.39133 76.541 11.2691 75.1551 11.2691Z" fill="#FA8314"/>
<path d="M72.4691 10.307C71.4655 9.91624 67.1549 9.04453 66.167 6.97986C64.6899 3.99556 73.557 9.2496 73.557 9.2496C73.557 9.2496 72.9954 5.48072 74.9354 4.94061C76.8754 4.40051 74.4112 9.33163 74.4112 9.33163C74.4112 9.33163 76.7545 4.95991 79.0787 4.3818C81.403 3.80369 75.2137 10.0043 75.2137 10.0043C74.559 10.5535 74.0851 10.6399 72.4691 10.307Z" fill="#FA8314"/>
</svg>
