<svg width="85" height="85" viewBox="0 0 85 85" fill="none" xmlns="http://www.w3.org/2000/svg">
<g clip-path="url(#clip0_6636_9969)">
<path d="M79.9124 84.7791C72.5059 84.7791 69.3474 85.4088 59.3021 84.5393C41.4205 84.7092 20.8202 84.7791 20.8202 84.7791C20.8202 84.7791 1.10948 86.6982 1.10948 73.2646C1.10948 66.9875 10.8549 59.4411 10.8449 59.4411C17.4218 55.6329 27.4671 53.7238 43.7194 59.491C50.2464 62.4696 50.6362 60.8904 43.8094 57.8018C40.351 56.2626 33.6342 54.0336 26.0078 53.7937C24.4985 51.9546 16.6722 42.539 15.6127 42.8689C14.4832 43.2187 20.1005 48.956 23.6489 54.0036C18.6312 54.5933 13.7036 56.0527 9.9953 58.7614C3.76823 53.254 0 44.748 0 36.5818C0 26.8564 12.0743 30.3847 24.5584 36.4919C24.6384 37.0816 24.7583 37.7313 24.9383 38.381C25.6779 40.8998 26.5775 43.9184 28.5266 46.3572C29.796 48.5662 34.4338 52.7642 39.7813 53.9936C46.9479 55.6229 62.0808 55.9927 69.8671 44.658C71.3664 41.7894 72.4659 36.6318 72.9956 36.7617C73.7553 36.9317 72.5758 41.0297 73.5554 43.5385C74.5349 46.0474 83.5207 51.155 84.7601 61.5401C85.9995 71.9252 80.1923 73.7643 76.1941 73.2446C73.5554 76.7429 64.7895 77.6325 59.9318 76.3331C52.6452 74.2841 47.6876 70.8957 35.1934 69.9761C22.6993 69.0565 17.3618 74.5539 20.2805 74.5539C23.1991 74.5539 23.5289 71.8252 33.5642 71.8252C43.5995 71.8252 54.8142 76.1332 58.9623 78.2822C63.1203 80.4212 63.67 77.6725 68.5577 77.6725C73.4454 77.6725 75.3645 82.1104 80.5821 79.7415C85.7996 77.3726 87.2989 84.7991 79.8924 84.7991L79.9124 84.7791Z" fill="#FA8314"/>
<path d="M72.8657 29.386C72.4259 32.5145 70.5268 42.3499 64.5496 48.0172C61.621 50.9358 43.4795 57.3228 32.3847 48.8068C31.2353 47.7573 30.9054 46.7578 32.7246 47.3475C34.5437 47.9372 39.6013 48.9668 46.9679 47.6973C49.6866 47.2176 53.7846 45.8382 55.6338 44.9686C55.6338 42.7497 59.402 35.1033 59.362 33.0742C59.362 31.395 58.6524 28.5963 58.9122 25.3778C59.0821 23.2788 60.6714 20.7001 60.7514 19.5606C60.8313 18.4211 59.7618 18.5211 58.7323 21.2698C56.4134 27.3869 57.8127 30.1856 57.8127 33.1842C57.8127 36.1828 54.8741 42.9596 54.3044 42.9596C53.7347 42.9596 51.0359 37.772 47.4676 34.5435C42.37 30.3555 41.3605 29.9957 41.0406 29.0361C40.7208 28.0766 45.6785 25.2879 46.4981 23.3888C46.8279 22.4392 45.6085 19.4406 45.3286 19.6505C45.0488 19.8604 45.3786 22.2793 42.7598 22.7591C41.8103 22.939 40.201 21.2498 39.0116 19.1808C38.8117 18.8309 38.3919 17.6315 38.2619 17.2717C37.6123 15.4725 37.2224 13.4635 37.2624 11.6343C36.9126 11.5044 34.3238 10.4749 35.5232 7.86609C35.5232 7.86609 31.9449 2.00885 41.3405 0.289656C50.7261 -1.42954 50.3263 4.76755 50.3263 4.76755C50.3263 4.76755 51.7056 -0.0102029 56.9831 -0.0102029C62.2607 -0.0102029 56.8332 16.3921 51.1859 15.3925C51.1859 15.3925 50.3862 15.3326 50.4262 14.0832C50.4662 12.8338 52.2554 11.9742 51.8655 9.79518C51.3858 6.76661 47.6475 8.46581 48.1773 9.22545C48.707 9.98509 48.6271 9.10551 49.4767 9.10551C50.3263 9.10551 51.6656 10.285 49.6666 13.0636C48.1073 15.7724 52.0155 19.3707 53.9446 19.1508C55.8737 18.9309 57.5329 16.7719 60.1416 14.7129C66.8685 8.15595 71.2864 13.7433 71.9161 15.7024C73.2855 18.3811 73.1655 26.1675 72.8757 29.386H72.8657Z" fill="#FA8314"/>
<path d="M41.4987 30.9851C41.6386 30.6852 42.5182 31.7347 43.0379 32.1845C47.6358 36.1027 52.9133 43.0094 52.7234 44.1889C52.5335 45.3683 38.3901 49.4664 29.9141 45.3383C28.4448 43.4592 26.7456 40.3107 26.0659 36.8623C25.7861 35.6429 25.6461 33.5239 25.926 31.5248C26.1159 30.1754 26.5957 28.1364 27.0055 28.4263C27.4153 28.7161 26.8456 31.6747 29.0045 33.214C31.1635 34.7533 32.203 35.8328 33.0426 37.522C33.8723 39.2112 36.6909 39.2612 37.5605 36.4025C37.5605 36.4025 38.5401 34.1936 40.2692 33.7638C41.9984 33.334 41.3487 31.2749 41.4787 30.9751L41.4987 30.9851Z" fill="#FA8314"/>
<path d="M39.8411 32.8442C38.6816 33.4039 37.6021 33.7638 36.8025 35.2431C36.0029 36.7224 34.9034 37.7119 33.9638 36.6524C33.0243 35.5929 32.0247 33.6938 30.1556 32.6943C28.2865 31.6947 27.4769 28.6761 28.1466 27.0869C30.7553 22.679 37.0624 24.9379 39.2114 29.3658C39.6212 29.8256 40.3808 30.3654 40.6507 30.8051C40.9205 31.2449 40.9805 32.2745 39.8311 32.8342L39.8411 32.8442Z" fill="#FA8314"/>
</g>
<defs>
<clipPath id="clip0_6636_9969">
<rect width="85" height="85" fill="white"/>
</clipPath>
</defs>
</svg>
