<svg width="57" height="58" viewBox="0 0 57 58" fill="none" xmlns="http://www.w3.org/2000/svg">
<path d="M28.3037 17.3813C28.3243 17.2363 28.4119 17.1172 28.5665 17.1172C28.6953 17.1172 28.8499 17.2363 28.8293 17.3813C28.8036 17.5936 28.7314 17.8008 28.6232 17.9924C28.18 18.7795 27.1546 18.9867 26.3611 18.6397C25.8921 18.4326 25.5005 17.9613 25.3923 17.4486C25.3254 17.1172 25.8304 16.9774 25.9025 17.3088C25.9076 17.3554 25.9231 17.3969 25.9386 17.4434C25.9437 17.4642 25.954 17.4797 25.9592 17.5004L25.9643 17.5056C25.9678 17.5125 25.9695 17.5177 25.9695 17.5211C25.9695 17.5263 25.9747 17.5263 25.9747 17.5315C26.0004 17.5885 26.0313 17.6454 26.0622 17.6972C26.1344 17.8163 26.1756 17.8681 26.2941 17.9717C26.3765 18.0494 26.5157 18.1374 26.6393 18.184C26.9743 18.3083 27.3969 18.3083 27.7059 18.1633C27.9636 18.039 28.0924 17.8785 28.2161 17.6299L28.2212 17.6247C28.2212 17.6247 28.2264 17.6195 28.2316 17.6092V17.604L28.2367 17.5988C28.2367 17.5781 28.247 17.5574 28.2573 17.5367C28.2677 17.5004 28.278 17.459 28.2883 17.4227C28.2986 17.3865 28.3243 17.226 28.3037 17.3813Z" fill="#FA8314"/>
<path d="M30.0351 23.0937C29.5043 23.0937 29.0767 22.7882 29.0767 22.4102C29.0767 22.0321 29.5043 21.7266 30.0351 21.7266C30.5658 21.7266 30.9936 22.0321 30.9936 22.4102C30.9936 22.7882 30.5658 23.0937 30.0351 23.0937Z" fill="#FA8314"/>
<path d="M32.4879 17.5056V17.5108C32.4931 17.516 32.4931 17.5263 32.4983 17.5315C32.5292 17.5885 32.5549 17.6454 32.591 17.6972C32.6632 17.8163 32.6992 17.8681 32.8177 17.9717C32.9002 18.0494 33.0393 18.1374 33.1682 18.184C33.4979 18.3083 33.9205 18.3083 34.2348 18.1633C34.4873 18.039 34.6212 17.8785 34.7449 17.6299L34.7501 17.6247V17.6195L34.7552 17.6143V17.604L34.7604 17.5988C34.7655 17.5781 34.7758 17.5574 34.7809 17.5367C34.7964 17.5004 34.8067 17.459 34.817 17.4227C34.8222 17.402 34.8325 17.3399 34.8377 17.3192C34.8377 17.3243 34.8377 17.3399 34.8325 17.3813C34.848 17.2363 34.9355 17.1172 35.0953 17.1172C35.219 17.1172 35.3736 17.2363 35.353 17.3813C35.3272 17.5936 35.2551 17.8008 35.1468 17.9924C34.7037 18.7795 33.6783 18.9867 32.8847 18.6397C32.421 18.4326 32.0242 17.9613 31.9211 17.4486C31.8542 17.1172 32.3591 16.9774 32.4261 17.3088C32.4364 17.3554 32.4519 17.3969 32.4673 17.4434C32.4725 17.4642 32.4828 17.4849 32.4879 17.5056Z" fill="#FA8314"/>
<path d="M28.8293 17.3813C28.8036 17.5937 28.7314 17.8008 28.6232 17.9924C28.18 18.7796 27.1546 18.9867 26.3611 18.6397C25.8921 18.4326 25.5005 17.9613 25.3923 17.4486C25.3254 17.1172 25.8304 16.9774 25.9025 17.3088C25.9076 17.3554 25.9231 17.3969 25.9386 17.4435C25.9437 17.4642 25.954 17.4797 25.9592 17.5004L25.9643 17.5056C25.9678 17.5125 25.9695 17.5177 25.9695 17.5211C25.9695 17.5263 25.9747 17.5263 25.9747 17.5315C26.0004 17.5885 26.0313 17.6454 26.0622 17.6972C26.1344 17.8163 26.1756 17.8681 26.2941 17.9717C26.3765 18.0494 26.5157 18.1374 26.6393 18.184C26.9743 18.3083 27.3969 18.3083 27.7059 18.1633C27.9636 18.039 28.0924 17.8785 28.2161 17.6299L28.2212 17.6247C28.2212 17.6247 28.2264 17.6195 28.2316 17.6092V17.604L28.2367 17.5988C28.2367 17.5781 28.247 17.5574 28.2573 17.5367C28.2677 17.5004 28.278 17.459 28.2883 17.4227C28.2986 17.3865 28.3243 17.226 28.3037 17.3813C28.3243 17.2363 28.4119 17.1172 28.5665 17.1172C28.6953 17.1172 28.8499 17.2363 28.8293 17.3813Z" fill="#FA8314"/>
<path d="M30.9936 22.4102C30.9936 22.7882 30.5658 23.0937 30.0351 23.0937C29.5043 23.0937 29.0767 22.7882 29.0767 22.4102C29.0767 22.0321 29.5043 21.7266 30.0351 21.7266C30.5658 21.7266 30.9936 22.0321 30.9936 22.4102Z" fill="#FA8314"/>
<path d="M35.353 17.3813C35.3272 17.5936 35.2551 17.8008 35.1468 17.9924C34.7037 18.7795 33.6783 18.9867 32.8847 18.6397C32.421 18.4326 32.0242 17.9613 31.9211 17.4486C31.8542 17.1172 32.3591 16.9774 32.4261 17.3088C32.4364 17.3554 32.4519 17.3969 32.4673 17.4434C32.4725 17.4642 32.4828 17.4849 32.4879 17.5056V17.5108C32.4931 17.516 32.4931 17.5263 32.4983 17.5315C32.5292 17.5885 32.5549 17.6454 32.591 17.6972C32.6632 17.8163 32.6992 17.8681 32.8177 17.9717C32.9002 18.0494 33.0393 18.1374 33.1682 18.184C33.4979 18.3083 33.9205 18.3083 34.2348 18.1633C34.4873 18.039 34.6212 17.8785 34.7449 17.6299L34.7501 17.6247V17.6195L34.7552 17.6143V17.604L34.7604 17.5988C34.7655 17.5781 34.7758 17.5574 34.7809 17.5367C34.7964 17.5004 34.8067 17.459 34.817 17.4227C34.8222 17.402 34.8325 17.3399 34.8377 17.3192C34.8377 17.3243 34.8377 17.3399 34.8325 17.3813C34.848 17.2363 34.9355 17.1172 35.0953 17.1172C35.219 17.1172 35.3736 17.2363 35.353 17.3813Z" fill="#FA8314"/>
<path d="M21.5172 41.1968C21.5172 41.6432 16.0785 43.4029 15.643 43.4029C15.2075 43.4029 14.4085 40.5593 13.938 38.9383C13.1909 36.3638 12.2367 30.4062 12.6676 30.4062C13.0985 30.4062 15.0727 35.6858 17.4409 37.8335C19.8092 39.9813 21.5172 40.7503 21.5172 41.1968Z" fill="#FA8314"/>
<path d="M38.5372 22.6484C38.5269 23.187 38.4548 24.1036 38.1508 25.2947C37.6767 27.1073 36.5534 29.94 33.8481 33.1611C33.0752 34.0778 31.5087 35.9162 30.911 35.9162C30.3133 35.9162 22.8291 32.4308 22.0894 22.664C23.6352 25.7919 26.7836 27.7753 30.3081 27.7753C33.8224 27.7753 36.9914 25.7815 38.5372 22.6484Z" fill="#FA8314"/>
<path d="M44.7208 34.1797C45.1542 34.1797 43.5614 46.1528 41.4282 49.7934C38.8826 54.1383 34.8479 56.4273 29.0819 56.7846C29.051 56.7898 25.9799 57.3698 22.5996 54.9358C22.9448 54.3558 24.872 51.3677 28.7263 49.4102L29.0922 49.2289C32.0396 47.7319 37.0753 45.1735 40.7707 41.0433C42.4957 39.1152 44.2874 34.1797 44.7208 34.1797Z" fill="#FA8314"/>
<path d="M44.6589 30.167C44.4471 31.6962 41.6599 39.3902 34.3171 44.1183C32.7455 45.1282 28.7652 47.2845 27.4667 48.0872C22.5045 51.1634 22.2988 52.8956 21.2832 53.0732C20.2677 53.2508 15.7512 45.874 16.2615 45.3612C16.7717 44.8484 18.9599 45.0889 21.6705 44.1456C25.0556 42.9677 29.5319 40.6645 33.8842 36.1639C41.8763 27.9039 39.7121 20.9541 39.3772 20.0323L39.3927 19.9391C40.4644 19.4627 40.99 17.7589 40.5417 16.1587C40.3769 15.5787 40.1347 15.2472 39.8152 15.1747C39.5061 15.1023 39.2175 15.2887 38.9908 15.501C38.1921 13.2172 36.5122 11.3063 34.3429 10.2343C34.3429 10.2343 31.1936 9.29283 29.3172 11.6429C28.6835 12.5595 28.2316 13.6678 28.6748 14.2788C29.2158 15.0142 29.9681 15.0453 30.4937 14.8278C30.9008 14.6621 31.1623 14.1957 30.8287 13.9024C30.4952 13.6091 29.8484 14.1638 29.5471 13.9334C29.2457 13.7029 29.3068 13.2005 29.557 12.9176C29.8072 12.6348 30.3836 12.5058 30.9503 12.8269C31.3884 13.0703 31.8582 13.7506 31.6418 14.3979C31.1727 15.6519 30.097 15.7444 29.2209 15.5373C28.3346 15.3301 27.1919 14.4601 27.4547 12.6683C27.9034 9.88561 30.0247 9.2866 30.0247 9.2866L29.4322 9.34359C25.7943 9.69055 22.6665 12.2384 21.5586 15.7185C21.3525 15.4751 20.9609 15.0971 20.559 15.1644C20.224 15.2214 19.9664 15.5528 19.7964 16.1587C19.4923 17.2566 19.6315 18.4321 20.1622 19.2348C20.4714 19.7009 21.2387 20.0683 21.2593 20.0683C21.2593 20.0683 20.4406 22.6887 21.0136 26.0687C23.1972 35.1165 29.3652 36.6156 29.3652 37.0132C29.3652 37.4108 25.5057 39.3643 23.1354 40.4674C20.827 38.8671 14.8949 34.3307 12.9678 26.0137C13.2615 14.6828 18.6833 3.01524 29.0045 2.48185C35.0333 2.17111 43.0387 7.38944 44.3991 17.9591C45.0432 22.9824 44.8708 28.6378 44.6589 30.167Z" fill="#FA8314"/>
<path d="M16.0453 45.1172L16.0195 45.1224L16.0556 45.2467H16.0865C16.071 45.2052 16.0556 45.1638 16.0453 45.1172Z" fill="#FA8314"/>
<path d="M23.1972 1.47169C23.1972 1.67882 22.9189 1.86009 22.4191 2.19153C20.8887 3.19101 14.7283 6.45811 12.4395 14.9777C10.5341 22.409 9.43907 28.7633 10.7737 37.0543C11.9691 44.465 15.6173 51.4066 17.8176 53.6416C20.0179 55.8766 21.1309 56.8006 21.1309 57.4013C21.1309 58.002 18.8121 57.9917 15.6276 57.9865C14.5044 57.9865 13.2265 57.9813 11.7888 58.002C7.12028 58.002 4.37377 57.2822 2.87434 55.6613C0.921386 53.5484 1.18935 49.9026 1.56034 44.8585C1.73558 42.4194 1.93648 39.6592 1.93648 36.552C2.08078 32.1915 1.75105 26.2723 1.43667 20.5447C1.16871 15.8166 0.921387 11.3526 0.921387 7.73786C0.921387 5.75445 1.42636 4.29406 2.46208 3.26867C4.12645 1.62704 6.93479 1.39399 9.68124 1.39399C10.2275 1.39399 10.7737 1.40436 11.3044 1.41472C12.3916 1.43024 13.4119 1.4458 14.3291 1.3888C15.2154 1.33184 16.0759 1.26452 16.8901 1.20238C19.9354 0.969333 22.5634 0.772538 23.1044 1.27488C23.1663 1.33184 23.1972 1.394 23.1972 1.47169Z" fill="#FA8314"/>
<path d="M56.3766 41.6165C56.9176 47.2406 57.5308 53.6155 54.9492 56.4689C54.0217 57.4995 52.7593 57.9966 51.0949 57.9966H50.595C44.4168 57.9966 37.5171 57.9863 37.2749 57.0179C37.2543 56.9246 37.3007 56.6554 38.2076 56.1686C40.1502 55.1277 46.5088 51.0676 46.7304 42.5694C46.7716 40.9329 46.8592 39.167 46.9571 37.3027C47.3385 29.8817 47.8176 20.6481 45.3031 13.4083C42.4536 4.28869 37.5325 2.66258 35.4301 1.96347C34.8634 1.77701 34.415 1.63203 34.415 1.46631C34.415 1.3938 34.4408 1.33684 34.4975 1.28504C35.7352 0.105864 42.7575 1.32648 43.5923 1.38343C44.5044 1.44042 45.5298 1.42487 46.617 1.40935C49.8272 1.35236 53.46 1.29022 55.4593 3.26329C56.4951 4.28869 57 5.74908 57 7.73248C57 11.3472 56.7527 15.8112 56.4847 20.5393C56.1704 26.267 55.8406 32.1862 55.9849 36.5466C56.0312 38.0691 56.2013 39.7936 56.3766 41.6165Z" fill="#FA8314"/>
<path d="M30.9936 22.4102C30.9936 22.7882 30.5658 23.0937 30.0351 23.0937C29.5043 23.0937 29.0767 22.7882 29.0767 22.4102C29.0767 22.0321 29.5043 21.7266 30.0351 21.7266C30.5658 21.7266 30.9936 22.0321 30.9936 22.4102Z" fill="#FA8314"/>
<path d="M35.353 17.3813C35.3272 17.5936 35.2551 17.8008 35.1468 17.9924C34.7037 18.7795 33.6783 18.9867 32.8847 18.6397C32.421 18.4326 32.0242 17.9613 31.9211 17.4486C31.8542 17.1172 32.3591 16.9774 32.4261 17.3088C32.4364 17.3554 32.4519 17.3969 32.4673 17.4434C32.4725 17.4642 32.4828 17.4849 32.4879 17.5056V17.5108C32.4931 17.516 32.4931 17.5263 32.4983 17.5315C32.5292 17.5885 32.5549 17.6454 32.591 17.6972C32.6632 17.8163 32.6992 17.8681 32.8177 17.9717C32.9002 18.0494 33.0393 18.1374 33.1682 18.184C33.4979 18.3083 33.9205 18.3083 34.2348 18.1633C34.4873 18.039 34.6212 17.8785 34.7449 17.6299L34.7501 17.6247V17.6195L34.7552 17.6143V17.6092C34.7604 17.604 34.7604 17.5988 34.7604 17.5988C34.7655 17.5781 34.7758 17.5574 34.7809 17.5367C34.7964 17.5004 34.8067 17.459 34.817 17.4227C34.8222 17.402 34.8325 17.3399 34.8377 17.3192C34.8377 17.3243 34.8377 17.3399 34.8325 17.3813C34.848 17.2363 34.9355 17.1172 35.0953 17.1172C35.219 17.1172 35.3736 17.2363 35.353 17.3813Z" fill="#FA8314"/>
<path d="M28.8293 17.3813C28.8036 17.5937 28.7314 17.8008 28.6232 17.9924C28.18 18.7796 27.1546 18.9867 26.3611 18.6397C25.8921 18.4326 25.5005 17.9613 25.3923 17.4486C25.3254 17.1172 25.8304 16.9774 25.9025 17.3088C25.9076 17.3554 25.9231 17.3969 25.9386 17.4435C25.9437 17.4642 25.954 17.4797 25.9592 17.5004L25.9643 17.5056C25.9678 17.5125 25.9695 17.5177 25.9695 17.5211C25.9695 17.5263 25.9747 17.5263 25.9747 17.5315C26.0004 17.5885 26.0313 17.6454 26.0622 17.6972C26.1344 17.8163 26.1756 17.8681 26.2941 17.9717C26.3765 18.0494 26.5157 18.1374 26.6393 18.184C26.9743 18.3083 27.3969 18.3083 27.7059 18.1633C27.9636 18.039 28.0924 17.8785 28.2161 17.6299L28.2212 17.6247C28.2212 17.6247 28.2264 17.6195 28.2316 17.6092V17.604L28.2367 17.5988C28.2367 17.5781 28.247 17.5574 28.2573 17.5367C28.2677 17.5004 28.278 17.459 28.2883 17.4227C28.2986 17.3865 28.3243 17.226 28.3037 17.3813C28.3243 17.2363 28.4119 17.1172 28.5665 17.1172C28.6953 17.1172 28.8499 17.2363 28.8293 17.3813Z" fill="#FA8314"/>
</svg>
