<svg width="58" height="58" viewBox="0 0 58 58" fill="none" xmlns="http://www.w3.org/2000/svg">
<path d="M7.54674 7.02487C10.6695 4.12758 16.6049 2.2408 16.3176 1.7506C16.0303 1.2604 11.7718 1.70498 9.68793 1.6083C5.4852 1.41332 3.19727 4.16253 2.14307 8.52212C1.6214 10.6794 0.782739 16.0149 1.40182 16.0155C2.02091 16.016 4.74473 9.70013 7.54674 7.02487Z" fill="#FA8314"/>
<path d="M0.986752 40.4862C-1.05049 40.0197 0.841297 56.7263 7.89949 57.0488C14.7279 57.3607 20.6941 58.6506 20.6946 57.3057C20.6946 55.8189 14.3879 55.157 9.49253 51.1831C4.58531 47.1996 2.0066 40.7197 0.986752 40.4862Z" fill="#FA8314"/>
<path d="M55.5528 53.5721C55.6956 53.2581 56.1953 52.6855 55.2892 52.6026C54.383 52.5197 43.3345 57.4492 43.3335 57.8948C43.3325 58.3404 53.7861 57.456 55.5528 53.5721Z" fill="#FA8314"/>
<path d="M39.6629 50.0863C28.8031 51.1707 22.4409 53.0434 12.1357 44.2558C-7.91493 27.1579 12.3575 3.31713 29.285 4.2632C46.2124 5.20927 53.0961 14.3978 54.0374 21.0203C54.9787 27.6428 51.7193 20.1098 49.0836 15.616C46.4478 11.1221 34.5398 4.83083 26.8207 6.91217C23.6075 7.77857 16.9909 9.11169 17.0778 10.0933C17.1647 11.0749 22.4113 8.62534 30.7003 10.4152C38.1196 11.8734 45.9173 15.616 49.711 21.9704C56.9317 35.9323 41.3881 52.7252 23.1259 42.7915C6.88772 34.4189 8.6057 26.2592 11.4297 20.5355C12.8417 17.6736 15.2232 15.5331 15.9292 15.9175C16.6352 16.3018 14.6385 17.688 12.6631 22.6168C8.49081 36.2238 27.448 42.9962 27.8644 42.0502C28.1461 41.41 22.1828 38.9744 20.7002 33.6528C19.5235 29.3373 17.016 26.3445 19.6876 23.5418C22.3593 20.7391 23.2316 17.5648 26.1718 16.6222C30.159 15.4766 34.2331 15.9865 37.5019 17.7948C40.1616 19.1533 42.7708 21.7679 44.3251 25.5285C45.8795 29.2891 43.9306 36.6916 41.361 37.8037C39.7135 38.4659 43.4373 30.9651 42.4091 30.8653C41.3808 30.7655 38.6627 36.3997 31.0294 33.875C21.9846 31.025 26.8106 19.6564 33.2117 20.9809C39.6129 22.3054 38.5876 27.0821 36.8931 28.3499C35.1987 29.6176 34.4456 27.2525 35.2929 26.0227C36.14 24.7927 35.1085 23.5904 34.4692 23.1135C33.8299 22.6365 30.492 22.0846 29.285 26.0227C27.8961 33.9459 40.655 32.5175 41.3257 28.0829C41.8581 24.7805 39.9575 22.5459 38.1051 20.7745C35.1206 17.9207 28.3196 16.1132 25.492 20.3257C22.6645 24.5382 21.1849 24.3223 21.5143 28.4849C21.8438 32.6476 29.4155 43.9908 40.1846 42.1856C47.0905 40.093 50.8169 32.7017 48.9183 27.2757C47.0196 21.8498 45.9425 17.8273 39.243 15.0982C31.7593 12.3778 30.5231 12.6228 27.1747 11.8534C20.6514 10.9355 15.635 12.3005 11.0818 15.2189C7.86138 17.3778 8.15544 19.7061 6.77006 25.1711C5.38469 30.6362 8.7469 41.9874 18.3486 45.8899C30.6477 51.0206 36.3682 48.4142 44.9109 47.2377C53.4536 46.0612 57.0348 38.9248 57.2936 36.4806C57.5525 34.0365 57.2315 29.9941 56.9859 26.7795C54.5832 11.7604 57.7367 6.98277 53.3592 4.48845C51.4181 2.95823 48.2997 1.49562 42.6517 2.27611C37.0036 3.05662 29.6044 0.649682 24.464 0.995088C14.3883 2.3627 14.9127 4.92542 9.14995 9.25067C4.00855 13.1777 2.02949 19.6165 1.33273 22.8283C0.31465 26.0699 -0.0265923 33.1536 1.25135 35.7162C2.41586 38.1357 5.30642 48.0423 14.1126 51.4717C22.9187 54.9011 24.2954 57.4643 35.1099 57.4643C40.5807 57.4643 54.5126 52.3468 56.9115 49.3303C57.3895 48.5862 58.0731 45.6549 56.6307 44.8677C55.1882 44.0806 53.6347 49.1961 39.6629 50.0863Z" fill="#FA8314"/>
</svg>
